<svg xmlns="http://www.w3.org/2000/svg" xmlns:xlink="http://www.w3.org/1999/xlink" viewBox="0 0 612.9 586.52"><defs><style>.cls-1{mask:url(#mask);}.cls-2,.cls-4{mix-blend-mode:multiply;}.cls-2{fill:url(#linear-gradient);}.cls-3{mask:url(#mask-2);}.cls-4{fill:url(#linear-gradient-2);}.cls-5{isolation:isolate;}.cls-6{fill:#6f55ad;}.cls-7{fill:#81f7b0;}.cls-8{fill:#ea6890;}.cls-9{fill:#edea77;}.cls-10{fill:#fffc99;}.cls-11{fill:#83f29e;}.cls-12{fill:#f26da0;}.cls-13{opacity:0.5;}.cls-14{fill:#9fffd8;}.cls-15{fill:#dfff7d;}.cls-16{fill:#91e0e2;}.cls-17{mask:url(#mask-3);}.cls-18,.cls-24{opacity:0.7;mix-blend-mode:overlay;}.cls-18{fill:url(#linear-gradient-3);}.cls-19{fill:#b2476e;}.cls-20{fill:#8fefdf;}.cls-21{fill:#ffc050;}.cls-22{fill:#ff6470;}.cls-23{mask:url(#mask-4);}.cls-24{fill:url(#linear-gradient-4);}.cls-25{filter:url(#luminosity-noclip-4);}.cls-26{filter:url(#luminosity-noclip-3);}.cls-27{filter:url(#luminosity-noclip-2);}.cls-28{filter:url(#luminosity-noclip);}</style><filter id="luminosity-noclip" x="94.92" y="-8592" width="293.04" height="32766" filterUnits="userSpaceOnUse" color-interpolation-filters="sRGB"><feFlood flood-color="#fff" result="bg"/><feBlend in="SourceGraphic" in2="bg"/></filter><mask id="mask" x="94.92" y="-8592" width="293.04" height="32766" maskUnits="userSpaceOnUse"><g class="cls-28"/></mask><linearGradient id="linear-gradient" x1="241.44" y1="175" x2="241.44" y2="617.23" gradientUnits="userSpaceOnUse"><stop offset="0" stop-color="#333"/><stop offset="1" stop-color="#b3b3b3"/></linearGradient><filter id="luminosity-noclip-2" x="415.64" y="-8592" width="292.18" height="32766" filterUnits="userSpaceOnUse" color-interpolation-filters="sRGB"><feFlood flood-color="#fff" result="bg"/><feBlend in="SourceGraphic" in2="bg"/></filter><mask id="mask-2" x="415.64" y="-8592" width="292.18" height="32766" maskUnits="userSpaceOnUse"><g class="cls-27"/></mask><linearGradient id="linear-gradient-2" x1="561.74" y1="192" x2="561.74" y2="638.18" xlink:href="#linear-gradient"/><filter id="luminosity-noclip-3" x="94.92" y="101" width="293.04" height="586.35" filterUnits="userSpaceOnUse" color-interpolation-filters="sRGB"><feFlood flood-color="#fff" result="bg"/><feBlend in="SourceGraphic" in2="bg"/></filter><mask id="mask-3" x="0" y="0" width="293.04" height="586.35" maskUnits="userSpaceOnUse"><g class="cls-26"><g transform="translate(-94.92 -101)"><g class="cls-1"><path class="cls-2" d="M349.07,102.86c-23.61-8.16-49.22,11.89-51.47,33-23.1-5.8-61.17,25.55-67.64,61.55-49.31,3.1-85.32,61.62-71.46,113.14-35.41,18.89-54.38,64.58-44.19,104.22-30.07,32.38-24.6,105.5,12.51,124.4-18.2,38.82,29.05,111.21,81.81,98.6,43.44,109.15,181.81,11.52,178.76-40.9V250.76S395.71,119,349.07,102.86Z"/></g></g></g></mask><linearGradient id="linear-gradient-3" x1="241.44" y1="175" x2="241.44" y2="617.23" gradientUnits="userSpaceOnUse"><stop offset="0" stop-color="#95f3ff"/><stop offset="1" stop-color="#510028"/></linearGradient><filter id="luminosity-noclip-4" x="415.64" y="101.53" width="292.18" height="585.99" filterUnits="userSpaceOnUse" color-interpolation-filters="sRGB"><feFlood flood-color="#fff" result="bg"/><feBlend in="SourceGraphic" in2="bg"/></filter><mask id="mask-4" x="320.72" y="0.53" width="292.18" height="585.99" maskUnits="userSpaceOnUse"><g class="cls-25"><g transform="translate(-94.92 -101)"><g class="cls-3"><path class="cls-4" d="M688.27,414.1c9.9-39.7-9.18-85.29-44.42-104,13.47-51.59-22.59-109.92-71.54-112.75-6.63-36-44.58-67.11-67.48-61.18-2.35-21.12-27.87-41-51.26-32.73-46.2,16.38-37.22,148.1-37.22,148.1V597.68c-2.75,52.44,137,149.31,179.53,39.92,52.43,12.32,98.93-60.32,80.65-99C713.26,519.46,718.3,446.31,688.27,414.1Z"/></g></g></g></mask><linearGradient id="linear-gradient-4" x1="561.74" y1="192" x2="561.74" y2="638.18" gradientUnits="userSpaceOnUse"><stop offset="0" stop-color="#ffb65c"/><stop offset="1" stop-color="#510028"/></linearGradient></defs><title>cerebrocool</title><g class="cls-5"><g id="_1" data-name="1"><path class="cls-6" d="M387.39,596.89V250.76s8.32-131.76-38.32-147.9c-23.61-8.16-49.22,11.89-51.47,33-23.1-5.8-61.17,25.55-67.64,61.55-49.31,3.1-85.32,61.62-71.46,113.14-35.41,18.89-54.38,64.58-44.19,104.22-30.07,32.38-24.6,105.5,12.51,124.4-18.2,38.82,29.05,111.21,81.81,98.6C252.07,746.94,390.44,649.31,387.39,596.89Z" transform="translate(-94.92 -101)"/><polygon class="cls-7" points="262.89 145.45 262.89 131.75 249.19 131.75 262.89 145.45"/><polygon class="cls-7" points="247.02 133.92 247.02 147.62 260.72 147.62 247.02 133.92"/><path class="cls-7" d="M129.28,447.06a14.79,14.79,0,0,0-15.71,0l3.19,3.19a10.47,10.47,0,0,1,9.34,0Z" transform="translate(-94.92 -101)"/><path class="cls-7" d="M112.09,464.24a10.45,10.45,0,0,1,0-9.33l-3.18-3.19a14.78,14.78,0,0,0,0,15.7Z" transform="translate(-94.92 -101)"/><path class="cls-7" d="M126.09,468.9a10.44,10.44,0,0,1-9.34,0l-3.18,3.18a14.82,14.82,0,0,0,15.71,0Z" transform="translate(-94.92 -101)"/><path class="cls-7" d="M116.93,455.08a6.35,6.35,0,1,0,9,0A6.35,6.35,0,0,0,116.93,455.08Z" transform="translate(-94.92 -101)"/><rect class="cls-8" x="163.9" y="422.82" width="19.93" height="2" transform="translate(-343.69 146.09) rotate(-45)"/><rect class="cls-8" x="171.93" y="430.85" width="19.93" height="2" transform="translate(-347.02 154.12) rotate(-45)"/><rect class="cls-8" x="179.7" y="438.62" width="19.93" height="2" transform="translate(-350.24 161.89) rotate(-45)"/><polygon class="cls-9" points="178.57 549.72 111.49 482.64 112.9 481.22 178.57 546.89 247.13 478.33 55.47 286.66 250.53 91.6 250.53 26.78 252.53 26.78 252.53 92.43 58.3 286.66 249.96 478.33 178.57 549.72"/><polygon class="cls-10" points="54.74 299.37 66.75 287.37 54.74 275.36 54.74 299.37"/><polygon class="cls-10" points="50.94 275.36 38.94 287.37 50.94 299.37 50.94 275.36"/><polygon class="cls-9" points="197.72 428.03 196.3 426.61 259.23 363.69 259.23 175.51 261.23 175.51 261.23 364.52 197.72 428.03"/><polygon class="cls-8" points="227.86 397.99 225.86 397.99 225.86 252.43 208.83 235.27 208.83 179.71 196.3 167.08 197.72 165.67 210.83 178.88 210.83 234.44 227.86 251.61 227.86 397.99"/><polygon class="cls-11" points="259.52 364.81 243.16 348.45 243.16 219.76 245.16 219.76 245.16 347.62 260.93 363.4 259.52 364.81"/><path class="cls-7" d="M351.11,464.23a4.22,4.22,0,1,0,4.21-4.22A4.22,4.22,0,0,0,351.11,464.23Z" transform="translate(-94.92 -101)"/><path class="cls-12" d="M324.77,549.22A4.22,4.22,0,1,0,329,545,4.22,4.22,0,0,0,324.77,549.22Z" transform="translate(-94.92 -101)"/><path class="cls-12" d="M313.53,654.22a4.22,4.22,0,1,0,4.22-4.21A4.22,4.22,0,0,0,313.53,654.22Z" transform="translate(-94.92 -101)"/><path class="cls-7" d="M335.13,321.81a4.22,4.22,0,1,0,4.21-4.21A4.22,4.22,0,0,0,335.13,321.81Z" transform="translate(-94.92 -101)"/><path class="cls-10" d="M319,329.19a4.22,4.22,0,1,0,4.22-4.21A4.21,4.21,0,0,0,319,329.19Z" transform="translate(-94.92 -101)"/><path class="cls-12" d="M234.69,393.2A4.22,4.22,0,1,0,238.9,389,4.21,4.21,0,0,0,234.69,393.2Z" transform="translate(-94.92 -101)"/><path class="cls-12" d="M252.07,344.47a4.22,4.22,0,1,0,4.22-4.22A4.22,4.22,0,0,0,252.07,344.47Z" transform="translate(-94.92 -101)"/><path class="cls-12" d="M154.75,369.4a2.5,2.5,0,1,0,2.5-2.5A2.5,2.5,0,0,0,154.75,369.4Z" transform="translate(-94.92 -101)"/><path class="cls-10" d="M160.63,363.52a2.5,2.5,0,1,0,2.5-2.5A2.5,2.5,0,0,0,160.63,363.52Z" transform="translate(-94.92 -101)"/><path class="cls-12" d="M166.51,357.64a2.5,2.5,0,1,0,2.5-2.5A2.5,2.5,0,0,0,166.51,357.64Z" transform="translate(-94.92 -101)"/><path class="cls-7" d="M172.39,351.75a2.51,2.51,0,1,0,2.51-2.5A2.51,2.51,0,0,0,172.39,351.75Z" transform="translate(-94.92 -101)"/><path class="cls-10" d="M178.28,345.87a2.5,2.5,0,1,0,2.5-2.5A2.5,2.5,0,0,0,178.28,345.87Z" transform="translate(-94.92 -101)"/><path class="cls-12" d="M184.16,340a2.5,2.5,0,1,0,2.5-2.5A2.5,2.5,0,0,0,184.16,340Z" transform="translate(-94.92 -101)"/><path class="cls-12" d="M190,334.11a2.51,2.51,0,1,0,2.5-2.51A2.5,2.5,0,0,0,190,334.11Z" transform="translate(-94.92 -101)"/><path class="cls-12" d="M148.51,527.49A2.5,2.5,0,1,0,151,530,2.5,2.5,0,0,0,148.51,527.49Z" transform="translate(-94.92 -101)"/><path class="cls-10" d="M154.4,533.37a2.5,2.5,0,1,0,2.5,2.5A2.5,2.5,0,0,0,154.4,533.37Z" transform="translate(-94.92 -101)"/><path class="cls-12" d="M160.28,539.25a2.51,2.51,0,1,0,2.5,2.5A2.5,2.5,0,0,0,160.28,539.25Z" transform="translate(-94.92 -101)"/><path class="cls-7" d="M166.16,545.13a2.51,2.51,0,1,0,2.5,2.51A2.51,2.51,0,0,0,166.16,545.13Z" transform="translate(-94.92 -101)"/><path class="cls-10" d="M172,551a2.5,2.5,0,1,0,2.51,2.5A2.5,2.5,0,0,0,172,551Z" transform="translate(-94.92 -101)"/><path class="cls-12" d="M177.92,556.9a2.5,2.5,0,1,0,2.51,2.5A2.5,2.5,0,0,0,177.92,556.9Z" transform="translate(-94.92 -101)"/><path class="cls-12" d="M183.81,562.78a2.51,2.51,0,1,0,2.5,2.5A2.5,2.5,0,0,0,183.81,562.78Z" transform="translate(-94.92 -101)"/><path class="cls-7" d="M202.55,331.82a4.22,4.22,0,1,0,4.22-4.21A4.22,4.22,0,0,0,202.55,331.82Z" transform="translate(-94.92 -101)"/><path class="cls-12" d="M288.6,268.17a4.21,4.21,0,1,0,4.21-4.22A4.2,4.2,0,0,0,288.6,268.17Z" transform="translate(-94.92 -101)"/><polygon class="cls-8" points="258.12 172.29 235.05 172.29 209.29 146.54 262.91 92.92 262.91 52.77 264.91 52.77 264.91 93.74 212.12 146.54 235.88 170.29 258.12 170.29 258.12 172.29"/><polygon class="cls-9" points="261.81 158.86 242.16 158.86 227.47 144.16 260.44 111.19 261.85 112.61 230.29 144.16 242.99 156.86 261.81 156.86 261.81 158.86"/><path class="cls-12" d="M354.88,155.61a4.22,4.22,0,1,0,4.22-4.21A4.21,4.21,0,0,0,354.88,155.61Z" transform="translate(-94.92 -101)"/><polygon class="cls-9" points="228.91 228.37 226.91 228.37 226.91 181.19 195.42 149.7 196.84 148.29 228.91 180.36 228.91 228.37"/><polygon class="cls-10" points="246.18 204.38 246.17 206.84 247.8 208.47 247.8 202.75 242.09 202.75 243.71 204.38 246.18 204.38"/><polygon class="cls-10" points="245.27 207.75 242.81 207.75 242.81 205.28 241.18 203.65 241.18 209.37 246.89 209.38 245.27 207.75"/><polygon class="cls-10" points="258.33 395.69 254.65 395.68 252.22 398.11 260.75 398.12 260.77 389.59 258.34 392.01 258.33 395.69"/><polygon class="cls-10" points="253.31 394.33 253.31 390.66 256.99 390.65 259.42 388.23 250.88 388.22 250.87 396.75 253.31 394.33"/><polygon class="cls-10" points="243.97 512.48 242.22 510.73 239.92 510.73 243.96 514.78 248.01 510.74 245.71 510.74 243.97 512.48"/><polygon class="cls-10" points="242.23 509.45 243.97 507.71 245.71 509.46 248.01 509.46 243.97 505.41 239.93 509.45 242.23 509.45"/><polygon class="cls-10" points="246.18 194.02 246.17 196.48 247.8 198.11 247.8 192.39 242.09 192.39 243.71 194.02 246.18 194.02"/><polygon class="cls-10" points="245.27 197.39 242.81 197.39 242.81 194.92 241.18 193.29 241.18 199.01 246.89 199.01 245.27 197.39"/><polygon class="cls-12" points="246.18 183.66 246.17 186.12 247.8 187.75 247.8 182.03 242.09 182.03 243.71 183.66 246.18 183.66"/><polygon class="cls-12" points="245.27 187.03 242.81 187.03 242.81 184.56 241.18 182.93 241.18 188.65 246.89 188.66 245.27 187.03"/><rect class="cls-9" x="228.27" y="205.06" width="13.7" height="2"/><rect class="cls-8" x="243.6" y="170.59" width="2" height="11.59"/><rect class="cls-9" x="246.88" y="194.7" width="13.35" height="2"/><polygon class="cls-9" points="113.43 470.7 112.02 469.28 206.02 375.28 206.02 266.53 158.29 218.81 89.9 287.19 112.11 309.4 110.7 310.81 87.08 287.19 158.29 215.98 208.02 265.7 208.02 376.11 113.43 470.7"/><polygon class="cls-11" points="228.18 484.66 103.35 359.84 22.11 359.84 22.11 357.84 104.18 357.84 229.59 483.24 228.18 484.66"/><polygon class="cls-11" points="184.41 479.47 112.87 407.14 113.06 371.37 59.75 371.09 59.52 412.87 96.51 450.26 104.71 442.15 79.45 416.62 79.6 389.86 81.6 389.87 81.46 415.8 107.54 442.17 96.5 453.09 57.52 413.69 57.76 369.07 115.07 369.39 114.87 406.32 185.84 478.06 184.41 479.47"/><polygon class="cls-9" points="237.23 465.96 235.81 464.54 255.27 445.08 255.27 395.71 257.27 395.71 257.27 445.91 237.23 465.96"/><polygon class="cls-8" points="233.71 449.1 219.72 435.11 219.72 403.61 221.72 403.61 221.72 434.28 235.12 447.68 233.71 449.1"/><rect class="cls-9" x="238.15" y="384.52" width="2" height="46.49"/><polygon class="cls-8" points="224.32 553.67 222.91 552.25 262.39 512.77 262.39 481.58 264.39 481.58 264.39 513.6 224.32 553.67"/><polygon class="cls-9" points="194.41 533.76 194.41 531.76 221.91 531.67 242.36 511.09 243.78 512.5 222.75 533.67 194.41 533.76"/><polygon class="cls-8" points="165.93 394.84 164.52 393.42 189.34 368.61 189.34 271.98 160.74 243.38 162.16 241.97 191.34 271.15 191.34 369.43 165.93 394.84"/><polygon class="cls-8" points="177.46 381.84 175.46 381.84 175.46 287.78 162.24 274.56 143.98 292.81 142.57 291.4 162.24 271.73 177.46 286.95 177.46 381.84"/><rect class="cls-9" x="188.08" y="378.85" width="62.83" height="2" transform="translate(-299.23 165.46) rotate(-45)"/><polygon class="cls-9" points="150.1 362.91 136.86 349.24 138.3 347.85 150.1 360.03 160.71 349.08 160.71 302.13 117.83 346.4 116.39 345.01 162.71 297.19 162.71 349.89 150.1 362.91"/><polygon class="cls-11" points="196.96 235.87 152.18 191.1 153.6 189.69 194.96 231.04 194.96 188.7 189.17 182.92 183.49 188.6 182.08 187.18 189.17 180.09 196.96 187.87 196.96 235.87"/><g class="cls-13"><polygon class="cls-14" points="114.63 210.3 118.47 206.46 113.46 201.46 109.62 205.3 114.63 210.3"/><polygon class="cls-14" points="121.43 203.5 125.28 199.65 120.27 194.65 116.42 198.5 121.43 203.5"/><polygon class="cls-14" points="128.24 196.69 132.08 192.85 127.07 187.85 123.22 191.69 128.24 196.69"/><polygon class="cls-14" points="135.04 189.89 138.88 186.04 133.87 181.05 130.03 184.89 135.04 189.89"/><rect class="cls-14" x="233.47" y="276.12" width="5.44" height="7.08" transform="translate(-223.49 147.83) rotate(-44.99)"/><polygon class="cls-14" points="148.65 176.28 152.49 172.44 147.48 167.44 143.64 171.28 148.65 176.28"/></g><g class="cls-13"><polygon class="cls-14" points="99.35 195.02 103.2 191.18 98.19 186.18 94.34 190.03 99.35 195.02"/><polygon class="cls-14" points="106.16 188.22 110 184.38 104.99 179.38 101.14 183.22 106.16 188.22"/><polygon class="cls-14" points="112.96 181.42 116.81 177.57 111.79 172.57 107.95 176.42 112.96 181.42"/><polygon class="cls-14" points="119.76 174.61 123.61 170.77 118.6 165.77 114.75 169.61 119.76 174.61"/><rect class="cls-14" x="218.19" y="260.85" width="5.44" height="7.08" transform="translate(-217.16 132.58) rotate(-44.99)"/><rect class="cls-14" x="224.99" y="254.04" width="5.44" height="7.08" transform="translate(-210.37 135.5) rotate(-45.01)"/></g><rect class="cls-7" x="270.43" y="223.84" width="22.56" height="7.33" transform="translate(-173.28 164.84) rotate(-45)"/><rect class="cls-12" x="260.35" y="216.64" width="7.32" height="7.88" transform="translate(-173.57 150.31) rotate(-45)"/><rect class="cls-10" x="300.22" y="176.78" width="7.32" height="7.88" transform="translate(-133.7 166.84) rotate(-45.01)"/><rect class="cls-10" x="242.97" y="234.03" width="7.32" height="7.88" transform="translate(-190.95 143.13) rotate(-45.01)"/><rect class="cls-7" x="265.56" y="285.53" width="14.12" height="15.15" transform="translate(-222.33 177.62) rotate(-45)"/><rect class="cls-15" x="203.75" y="406" width="14.12" height="15.15" transform="translate(-325.62 169.2) rotate(-45)"/><rect class="cls-12" x="291.87" y="202.4" width="22.56" height="7.33" transform="translate(-151.85 173.71) rotate(-45)"/><rect class="cls-11" x="77.55" y="339.32" width="2" height="19.93"/><polygon class="cls-9" points="63.35 340.51 48.55 325.71 88.83 285.43 90.25 286.84 51.38 325.71 64.77 339.1 63.35 340.51"/><rect class="cls-12" x="223.88" y="313.79" width="6.32" height="13.17"/><rect class="cls-12" x="311.51" y="498.29" width="13.17" height="6.32" transform="translate(-356.32 270.74) rotate(-44.99)"/><rect class="cls-10" x="236.62" y="532.45" width="6.32" height="13.17" transform="translate(-405.87 226.5) rotate(-45.01)"/><polygon class="cls-9" points="134.32 448.92 97.67 412.28 97.67 386.76 99.67 386.76 99.67 411.45 135.73 447.51 134.32 448.92"/><rect class="cls-7" x="70.75" y="378.68" width="33.72" height="12.29"/><rect class="cls-11" x="268.81" y="587.86" width="48.8" height="2" transform="translate(-425.43 278.8) rotate(-45)"/><rect class="cls-16" x="249.42" y="569.55" width="18.13" height="2" transform="translate(-422.66 248.88) rotate(-45)"/><path class="cls-10" d="M198.34,567.4a10.64,10.64,0,0,0-8,8h3.24a7.52,7.52,0,0,1,4.74-4.75Z" transform="translate(-94.92 -101)"/><path class="cls-10" d="M203.08,567.4v3.23a7.54,7.54,0,0,1,4.74,4.75h3.24A10.65,10.65,0,0,0,203.08,567.4Z" transform="translate(-94.92 -101)"/><path class="cls-10" d="M198.34,584.87a7.5,7.5,0,0,1-4.74-4.75h-3.24a10.64,10.64,0,0,0,8,8Z" transform="translate(-94.92 -101)"/><path class="cls-10" d="M207.82,580.12a7.52,7.52,0,0,1-4.74,4.75v3.23a10.65,10.65,0,0,0,8-8Z" transform="translate(-94.92 -101)"/><path class="cls-10" d="M281.35,637.05a14.82,14.82,0,0,0-15.71,0l3.19,3.19a10.47,10.47,0,0,1,9.34,0Z" transform="translate(-94.92 -101)"/><path class="cls-10" d="M286,641.72l-3.18,3.18a10.47,10.47,0,0,1,0,9.34l3.18,3.18A14.78,14.78,0,0,0,286,641.72Z" transform="translate(-94.92 -101)"/><path class="cls-10" d="M264.16,654.24a10.44,10.44,0,0,1,0-9.34L261,641.72a14.78,14.78,0,0,0,0,15.7Z" transform="translate(-94.92 -101)"/><path class="cls-10" d="M278.16,658.9a10.47,10.47,0,0,1-9.34,0l-3.18,3.17a14.79,14.79,0,0,0,15.71,0Z" transform="translate(-94.92 -101)"/><path class="cls-10" d="M269,645.08a6.35,6.35,0,1,0,9,0A6.35,6.35,0,0,0,269,645.08Z" transform="translate(-94.92 -101)"/><path class="cls-10" d="M359,124.82a13.26,13.26,0,0,0-9.95-9.95v4a9.38,9.38,0,0,1,5.92,5.91Z" transform="translate(-94.92 -101)"/><path class="cls-10" d="M359,130.73h-4a9.38,9.38,0,0,1-5.92,5.92v4A13.27,13.27,0,0,0,359,130.73Z" transform="translate(-94.92 -101)"/><path class="cls-10" d="M337.23,124.82a9.38,9.38,0,0,1,5.92-5.91v-4a13.26,13.26,0,0,0-9.95,9.95Z" transform="translate(-94.92 -101)"/><path class="cls-10" d="M343.15,136.65a9.38,9.38,0,0,1-5.92-5.92h-4a13.27,13.27,0,0,0,9.95,10Z" transform="translate(-94.92 -101)"/><path class="cls-10" d="M346.1,122.08a5.7,5.7,0,1,0,5.7,5.7A5.7,5.7,0,0,0,346.1,122.08Z" transform="translate(-94.92 -101)"/><path class="cls-15" d="M228.53,439.81a6.33,6.33,0,0,0-4.74,4.74h1.92a4.47,4.47,0,0,1,2.82-2.82Z" transform="translate(-94.92 -101)"/><path class="cls-15" d="M231.34,439.81v1.92a4.47,4.47,0,0,1,2.82,2.82h1.92A6.3,6.3,0,0,0,231.34,439.81Z" transform="translate(-94.92 -101)"/><path class="cls-15" d="M228.53,450.19a4.45,4.45,0,0,1-2.82-2.82h-1.92a6.33,6.33,0,0,0,4.74,4.74Z" transform="translate(-94.92 -101)"/><path class="cls-15" d="M234.16,447.37a4.45,4.45,0,0,1-2.82,2.82v1.92a6.3,6.3,0,0,0,4.74-4.74Z" transform="translate(-94.92 -101)"/><polygon class="cls-11" points="111.49 231.88 92.17 212.56 104.64 200.09 106.05 201.5 95 212.56 112.9 230.47 111.49 231.88"/><g class="cls-13"><rect class="cls-14" x="272.94" y="595.67" width="7.08" height="4.18" transform="translate(-436.64 269.62) rotate(-45)"/><rect class="cls-14" x="267.71" y="590.44" width="7.08" height="4.18" transform="translate(-434.5 264.45) rotate(-45.01)"/><rect class="cls-14" x="262.47" y="585.21" width="7.08" height="4.18" transform="translate(-432.3 259.13) rotate(-45)"/><rect class="cls-14" x="257.24" y="579.98" width="7.08" height="4.18" transform="translate(-430.11 253.84) rotate(-45)"/><rect class="cls-14" x="252.01" y="574.75" width="7.08" height="4.18" transform="translate(-427.94 248.59) rotate(-44.99)"/><rect class="cls-14" x="246.78" y="569.52" width="7.08" height="4.18" transform="translate(-425.8 243.42) rotate(-45)"/></g><g class="cls-13"><rect class="cls-14" x="259.42" y="609.2" width="7.08" height="4.18" transform="translate(-450.17 264.03) rotate(-45)"/><rect class="cls-14" x="254.19" y="603.96" width="7.08" height="4.18" transform="translate(-448.02 258.85) rotate(-45.01)"/><rect class="cls-14" x="248.95" y="598.73" width="7.08" height="4.18" transform="translate(-445.81 253.51) rotate(-45)"/><rect class="cls-14" x="243.72" y="593.5" width="7.08" height="4.18" transform="translate(-443.63 248.24) rotate(-45)"/><rect class="cls-14" x="238.49" y="588.27" width="7.08" height="4.18" transform="translate(-441.46 243) rotate(-45)"/><rect class="cls-14" x="233.26" y="583.04" width="7.08" height="4.18" transform="translate(-439.32 237.82) rotate(-45)"/></g><rect class="cls-7" x="246.02" y="559.05" width="20.18" height="63.21" transform="translate(-437.57 253.09) rotate(-45)"/><rect class="cls-7" x="187.67" y="271.34" width="62.08" height="20.18" transform="translate(-229.86 136.08) rotate(-45)"/><polygon class="cls-12" points="256.33 490.07 268.34 478.07 256.33 466.06 256.33 490.07"/><polygon class="cls-12" points="252.53 466.06 240.52 478.07 252.53 490.07 252.53 466.06"/><polygon class="cls-6" points="132.18 180.66 132.17 172.07 123.58 172.06 132.18 180.66"/><polygon class="cls-6" points="116 179.63 116.02 188.22 124.61 188.23 116 179.63"/><rect class="cls-6" x="212.71" y="279.01" width="12.7" height="4.18" transform="translate(-229.53 136.23) rotate(-45)"/><polygon class="cls-6" points="160.45 496.94 169.05 496.93 169.06 488.33 160.45 496.94"/><polygon class="cls-6" points="161.49 480.76 152.89 480.77 152.88 489.36 161.49 480.76"/><rect class="cls-6" x="253.85" y="583.54" width="4.18" height="12.69" transform="translate(-437.16 252.95) rotate(-45.02)"/><polygon class="cls-10" points="84.48 380.63 80.2 384.93 84.48 389.22 84.48 380.63"/><polygon class="cls-10" points="92.04 389.22 96.32 384.93 92.04 380.63 92.04 389.22"/><rect class="cls-10" x="83.74" y="383.45" width="8.96" height="2.95"/><polygon class="cls-12" points="94.88 348.25 68.65 322.01 42.41 348.25 94.88 348.25"/><path class="cls-12" d="M255.76,495.31a4.22,4.22,0,1,0,4.21-4.22A4.22,4.22,0,0,0,255.76,495.31Z" transform="translate(-94.92 -101)"/><path class="cls-10" d="M236.53,358.16a4.22,4.22,0,1,0,4.22-4.21A4.22,4.22,0,0,0,236.53,358.16Z" transform="translate(-94.92 -101)"/><path class="cls-10" d="M329.69,531.66a4.21,4.21,0,1,0,4.21-4.22A4.21,4.21,0,0,0,329.69,531.66Z" transform="translate(-94.92 -101)"/><path class="cls-10" d="M193.25,625.43a4.21,4.21,0,1,0,4.21-4.22A4.21,4.21,0,0,0,193.25,625.43Z" transform="translate(-94.92 -101)"/><path class="cls-10" d="M145.31,594.34a4.22,4.22,0,1,0,4.21-4.21A4.21,4.21,0,0,0,145.31,594.34Z" transform="translate(-94.92 -101)"/><polygon class="cls-10" points="255.53 178.99 266.69 178.99 266.69 167.83 255.53 178.99"/><polygon class="cls-10" points="264.92 166.06 253.76 166.07 253.76 177.22 264.92 166.06"/><path class="cls-10" d="M352.25,259.13a4.22,4.22,0,1,0,4.22-4.22A4.22,4.22,0,0,0,352.25,259.13Z" transform="translate(-94.92 -101)"/><path class="cls-7" d="M352.25,212.77a4.22,4.22,0,1,0,4.22-4.22A4.22,4.22,0,0,0,352.25,212.77Z" transform="translate(-94.92 -101)"/><path class="cls-7" d="M197.37,233.84a4.22,4.22,0,1,0,4.22-4.21A4.21,4.21,0,0,0,197.37,233.84Z" transform="translate(-94.92 -101)"/><polygon class="cls-9" points="87.59 494.96 55.3 494.96 55.3 492.96 86.76 492.96 97.79 481.93 99.2 483.34 87.59 494.96"/><polygon class="cls-9" points="103.19 524.25 101.19 524.25 101.19 505.4 118.86 487.72 120.28 489.13 103.19 506.23 103.19 524.25"/><polygon class="cls-11" points="60.52 463.19 44.55 447.23 44.55 402.41 57.49 389.47 58.91 390.89 46.55 403.24 46.55 446.4 61.93 461.78 60.52 463.19"/><polygon class="cls-11" points="87.17 179.82 72.85 165.5 105.96 132.4 107.37 133.81 75.68 165.5 87.17 176.99 130.37 133.8 152.06 155.49 143.98 163.57 142.57 162.16 149.24 155.49 130.37 136.62 87.17 179.82"/><rect class="cls-11" x="289.62" y="226.9" width="2" height="18.63" transform="translate(-176.83 173.68) rotate(-45)"/><polygon class="cls-8" points="169.8 120.29 168.38 118.88 195.39 91.87 209.83 106.32 208.42 107.73 195.39 94.7 169.8 120.29"/><polygon class="cls-8" points="216.42 98.51 215 97.1 237.69 74.42 262.86 74.42 262.86 76.42 238.51 76.42 216.42 98.51"/><polygon class="cls-9" points="152.16 134.86 150.16 134.86 150.16 106.06 178.16 78.06 210.03 78.06 237.75 105.79 236.34 107.21 209.2 80.06 178.99 80.06 152.16 106.89 152.16 134.86"/><path class="cls-7" d="M318.14,583.85a4.22,4.22,0,1,0,4.21-4.21A4.22,4.22,0,0,0,318.14,583.85Z" transform="translate(-94.92 -101)"/><path class="cls-7" d="M152.73,562.78a4.21,4.21,0,1,0,4.21-4.21A4.21,4.21,0,0,0,152.73,562.78Z" transform="translate(-94.92 -101)"/><path class="cls-7" d="M275.6,579.77a4.22,4.22,0,1,0,4.22-4.21A4.21,4.21,0,0,0,275.6,579.77Z" transform="translate(-94.92 -101)"/><g class="cls-17"><path class="cls-18" d="M349.07,102.86c-23.61-8.16-49.22,11.89-51.47,33-23.1-5.8-61.17,25.55-67.64,61.55-49.31,3.1-85.32,61.62-71.46,113.14-35.41,18.89-54.38,64.58-44.19,104.22-30.07,32.38-24.6,105.5,12.51,124.4-18.2,38.82,29.05,111.21,81.81,98.6,43.44,109.15,181.81,11.52,178.76-40.9V250.76S395.71,119,349.07,102.86Z" transform="translate(-94.92 -101)"/></g><path class="cls-19" d="M416.35,597.68V251.56s-9-131.72,37.22-148.1c23.39-8.3,48.91,11.61,51.26,32.73,22.9-5.93,60.85,25.21,67.48,61.18,49,2.83,85,61.16,71.54,112.75,35.24,18.69,54.32,64.28,44.42,104,30,32.21,25,105.36-11.74,124.46,18.28,38.72-28.22,111.36-80.65,99C553.36,747,413.6,650.12,416.35,597.68Z" transform="translate(-94.92 -101)"/><path class="cls-20" d="M521.39,670.82c-33-1.15-62.47-26.42-61.35-58.32,1.34-38.44,44.12-36.17,45.06-63.1,1.3-37.49-40.3-51.25-39.3-80.1.89-25.32,15.09-39.53,30.3-47.79-12.32,13.91-16.73,43.51-.39,61.25,70.16,59.61,32.92,109.62,4.65,124.09-22,11.29-20.57,43.64,19,45,38.66,1.34,52.14-30.24,52.18-45.41C580.56,624.77,577.84,672.79,521.39,670.82Z" transform="translate(-94.92 -101)"/><path class="cls-21" d="M518.74,489.06c-21.69-16-25.92-32.2-22.9-47.43,5.78-29.08,37.62-50.17,66.75-44.39,16.13,3.21,30.33,18.78,27.49,33.08-3.13,15.76-23.28,19.33-39.6,16.09-14.6-2.9-25.81-13.64-23.58-24.9C529,411.08,488.08,457.91,518.74,489.06Z" transform="translate(-94.92 -101)"/><path class="cls-22" d="M444.92,416.45c-14.27,59.81-18.84,88.87-3.4,132.53,2.36,6.14,11,13.4,17.83,13.4,13.59,0,22-13.42,22-26.43C481.34,509.46,436,487.65,444.92,416.45Z" transform="translate(-94.92 -101)"/><path class="cls-10" d="M447.43,621.34c-9.78-12.45-9.5-24.07-8.73-33.94,1-13.37,7.17-18.72,14-18.23,1.63.12,7.58,4.05,7.12,10.35C459,590.73,434.84,603,447.43,621.34Z" transform="translate(-94.92 -101)"/><path class="cls-22" d="M650.74,436.25c3.86-9.68,10.56-13.36,16.43-16.19,7.94-3.83,13-2.11,15,1.92.47,1,.2,5.65-3.53,7.48C672,432.71,657,423,650.74,436.25Z" transform="translate(-94.92 -101)"/><path class="cls-10" d="M562.1,531.85c14.8-14.66,15.14-28.72,14.67-40.68-.64-16.19-9.09-22.92-18.87-22.6-2.34.08-11.11,4.6-10.86,12.23C547.48,494.39,581.29,510.23,562.1,531.85Z" transform="translate(-94.92 -101)"/><path class="cls-21" d="M519.58,628a11.36,11.36,0,1,0-11.36,11.7A11.53,11.53,0,0,0,519.58,628Z" transform="translate(-94.92 -101)"/><path class="cls-21" d="M465.91,393c1-7.09-2.33-13.42-7.44-14.13s-10.05,4.44-11,11.53,2.34,13.41,7.44,14.13S464.92,400.05,465.91,393Z" transform="translate(-94.92 -101)"/><path class="cls-21" d="M626.74,541.73c1-7.08-2.34-13.41-7.44-14.13s-10,4.45-11,11.54,2.34,13.41,7.44,14.13S625.74,548.82,626.74,541.73Z" transform="translate(-94.92 -101)"/><path class="cls-20" d="M490.82,234.08c1-7.08-2.33-13.41-7.44-14.13s-10.05,4.45-11,11.54,2.33,13.41,7.44,14.13S489.83,241.17,490.82,234.08Z" transform="translate(-94.92 -101)"/><path class="cls-20" d="M555.22,569c-3.7-1.87-7.79-1.23-9.14,1.44s.56,6.35,4.26,8.22,7.8,1.22,9.15-1.44S558.93,570.84,555.22,569Z" transform="translate(-94.92 -101)"/><path class="cls-20" d="M571.64,573.71a3.12,3.12,0,1,0-1.33,4.28A3.18,3.18,0,0,0,571.64,573.71Z" transform="translate(-94.92 -101)"/><path class="cls-20" d="M577.92,582.92a3.12,3.12,0,1,0-.74,4.42A3.18,3.18,0,0,0,577.92,582.92Z" transform="translate(-94.92 -101)"/><path class="cls-20" d="M460.74,290.64c.89-6.35-2.29-12.05-7.11-12.72s-9.45,3.92-10.34,10.27,2.29,12.05,7.11,12.72S459.85,297,460.74,290.64Z" transform="translate(-94.92 -101)"/><path class="cls-21" d="M582.2,275.39c-1.61-6-7.1-9.82-12.28-8.45s-8.06,7.39-6.46,13.43,7.1,9.82,12.28,8.45S583.8,281.43,582.2,275.39Z" transform="translate(-94.92 -101)"/><path class="cls-20" d="M617.5,365.94A9.85,9.85,0,1,0,604,369.81,9.91,9.91,0,0,0,617.5,365.94Z" transform="translate(-94.92 -101)"/><path class="cls-21" d="M642.25,487.5a7.43,7.43,0,1,0-10.16,2.92A7.49,7.49,0,0,0,642.25,487.5Z" transform="translate(-94.92 -101)"/><path class="cls-10" d="M446.8,373.05c.43-3.11-1.33-5.93-3.94-6.3s-5.08,1.86-5.52,5,1.33,5.94,3.94,6.3S446.36,376.16,446.8,373.05Z" transform="translate(-94.92 -101)"/><path class="cls-22" d="M583.5,257.42c.44-3.11-1.32-5.93-3.93-6.3s-5.09,1.86-5.52,5,1.32,5.93,3.93,6.3S583.06,260.53,583.5,257.42Z" transform="translate(-94.92 -101)"/><path class="cls-10" d="M446.71,269.71c.44-3.11-1.32-5.93-3.94-6.3s-5.08,1.86-5.51,5,1.32,5.93,3.93,6.3S446.27,272.82,446.71,269.71Z" transform="translate(-94.92 -101)"/><path class="cls-22" d="M502.55,207.08a5,5,0,0,0-1.18-7.09,5.2,5.2,0,0,0-7.13,1.47,5,5,0,0,0,1.18,7.1A5.2,5.2,0,0,0,502.55,207.08Z" transform="translate(-94.92 -101)"/><path class="cls-10" d="M502.37,254.26c.44-3.11-1.32-5.93-3.93-6.3s-5.08,1.86-5.52,5,1.33,5.93,3.94,6.3S501.94,257.37,502.37,254.26Z" transform="translate(-94.92 -101)"/><path class="cls-22" d="M515.39,265.35a4.77,4.77,0,1,0-5.36,3.89A4.67,4.67,0,0,0,515.39,265.35Z" transform="translate(-94.92 -101)"/><path class="cls-20" d="M603.52,312.91c.44-3.11-1.32-5.93-3.94-6.3s-5.08,1.86-5.51,5,1.32,5.93,3.93,6.3S603.08,316,603.52,312.91Z" transform="translate(-94.92 -101)"/><path class="cls-21" d="M595.62,241.88c.43-3.11-1.33-5.93-3.94-6.3s-5.08,1.86-5.52,5,1.33,5.93,3.94,6.3S595.18,245,595.62,241.88Z" transform="translate(-94.92 -101)"/><path class="cls-20" d="M613.06,239.8c.32-2.32-1-4.43-2.95-4.71s-3.8,1.39-4.13,3.72,1,4.44,2.95,4.71S612.73,242.13,613.06,239.8Z" transform="translate(-94.92 -101)"/><path class="cls-21" d="M517.19,197.44a3.83,3.83,0,0,0-.44-5.43,3.94,3.94,0,0,0-5.46.79,3.82,3.82,0,0,0,.44,5.42A3.93,3.93,0,0,0,517.19,197.44Z" transform="translate(-94.92 -101)"/><path class="cls-22" d="M513.63,185.13a3.83,3.83,0,0,0-.59-5.41,3.92,3.92,0,0,0-5.43.94,3.82,3.82,0,0,0,.58,5.41A3.94,3.94,0,0,0,513.63,185.13Z" transform="translate(-94.92 -101)"/><path class="cls-22" d="M534.31,637.89a5.32,5.32,0,1,0-5.32,5.48A5.4,5.4,0,0,0,534.31,637.89Z" transform="translate(-94.92 -101)"/><path class="cls-21" d="M598.06,379.76a5.33,5.33,0,1,0-5.32,5.48A5.41,5.41,0,0,0,598.06,379.76Z" transform="translate(-94.92 -101)"/><path class="cls-20" d="M591.83,453.69a7,7,0,1,0-7,7.2A7.1,7.1,0,0,0,591.83,453.69Z" transform="translate(-94.92 -101)"/><path class="cls-22" d="M580.15,387.66a5.33,5.33,0,1,0-5.33,5.48A5.4,5.4,0,0,0,580.15,387.66Z" transform="translate(-94.92 -101)"/><path class="cls-10" d="M586.47,474.06a5.33,5.33,0,1,0-5.33,5.48A5.41,5.41,0,0,0,586.47,474.06Z" transform="translate(-94.92 -101)"/><path class="cls-22" d="M587.93,489.69a3.8,3.8,0,1,0-3.8,3.91A3.86,3.86,0,0,0,587.93,489.69Z" transform="translate(-94.92 -101)"/><path class="cls-10" d="M598.47,501.63a3.81,3.81,0,1,0-3.8,3.91A3.86,3.86,0,0,0,598.47,501.63Z" transform="translate(-94.92 -101)"/><path class="cls-21" d="M528.92,446.84a5.55,5.55,0,1,0-5.55,5.71A5.63,5.63,0,0,0,528.92,446.84Z" transform="translate(-94.92 -101)"/><path class="cls-10" d="M456.29,445.08c7.55-31.78,48-49.3,79.55-56.89,19.37-4.4,28.44-23.52,28.44-42.28,0-24.59-17.88-36.56-32.29-36.56-16,0-26.2,16.52-43.89,16.52-11.85,0-16.16-8.38-16.16-19.16,0-29.56,25.62-30.38-8.45-55-11.74-8.47-2.1-36.88,17.47-45-18.46,0-33.66,20.6-35.2,44.45,0,19.19,22.83,19.49,22.83,36.33,0,15.47-22.5,35.54-22.5,56.94,0,11.89,10.22,28.56,22.28,28.56,18,0,29.35-44.94,62.94-44.94,8.88,0,14.68,14.32,14.68,23.7,0,35.34-46.68,17.59-71.61,46C467.83,405.33,457.52,423.84,456.29,445.08Z" transform="translate(-94.92 -101)"/><path class="cls-22" d="M488.21,371.29c10.15-7.38,24.54-28.66,38.17-27.57,5.55.44,8.28,6.19,7.42,11.11-3.15,18.05-20.51,7.31-40.1,13.81A33.67,33.67,0,0,0,488.21,371.29Z" transform="translate(-94.92 -101)"/><path class="cls-20" d="M596.66,328.16c-16.49,7.91-9.74,34.84-40.4,58.24,4.87-2.25,18.83-11.86,22.63-14.92,17.42-14.09,18.68-28.37,27.89-30.88,6.32-1.71,17.45,2.53,21.5,10.73,5.48,11.08-6.68,31.59.68,48.17,5.2,11.7,21.27,17,34,12.28C711.09,393.77,652.67,301.29,596.66,328.16Z" transform="translate(-94.92 -101)"/><path class="cls-20" d="M612.13,251.58c-8.9,0-18.45,8.3-18.45,26.68,0,25.37,26.54,23,26.54,36.6,0,7.81-7.57,16-13.79,20.12l-11.94,4.92c31.3-3.79,43.11-36.65,43.11-54C637.6,265.49,624.87,251.58,612.13,251.58Z" transform="translate(-94.92 -101)"/><path class="cls-22" d="M622.72,428.16c8.61,0,17.84,6.89,17.84,22.16,0,21.07-25.66,19.13-25.66,30.41,0,6.48,7.31,13.27,13.33,16.71l11.54,4.09c-30.26-3.15-41.68-30.45-41.68-44.86C598.09,439.72,610.4,428.16,622.72,428.16Z" transform="translate(-94.92 -101)"/><path class="cls-21" d="M560.42,308.64c6.35,8.39,7,24.87,11.8,24.87,1.91,0,10.68-4.82,10.68-12.17a8.39,8.39,0,0,0-.06-1C581.56,311.11,568.43,310.18,560.42,308.64Z" transform="translate(-94.92 -101)"/><path class="cls-21" d="M616.92,375.44c-.81,15.53-5.75,27,6,40.85,1.73,2-16.6,1.72-22.52-7.77a13.26,13.26,0,0,1-.74-1.33C593.73,394.32,608.62,383.38,616.92,375.44Z" transform="translate(-94.92 -101)"/><path class="cls-22" d="M531.72,190.19c-7.15-8.42-10-18.12-30.65-22.52-3.56-.76,14.19-10.72,25.71-5.62a14.89,14.89,0,0,1,1.38.7C539.14,169.23,533.68,182.52,531.72,190.19Z" transform="translate(-94.92 -101)"/><path class="cls-20" d="M558.69,462.69c-11.4,3-20.14,8.05-22.82,22.26-.36,1.92-11.73-10.05-8.81-19.85a9.65,9.65,0,0,1,.5-1.36C533.52,451.17,550.4,456.66,558.69,462.69Z" transform="translate(-94.92 -101)"/><path class="cls-22" d="M675.48,435.49c-15.12-1.21-27.05,19.12-27.89,29.62-1.43,17.95,17.2,16.72,16,32C663,504,656,511.84,638,510.41c-28.8-2.3-39.17-21-44.93-28.34,1.89,18.77,43.38,31.35,41,60.69-.78,9.81-9.73,22.22-23.84,21.09-39.15-3.13-26.49,36.52-8.85,51.39,16.93,14.27,58.91-1.44,64-42.91,2.69-21.75-9-31.52-7.94-44.17.3-3.8,3.93-6.35,7-7.09A51,51,0,0,0,700.64,477C702,459.8,692,436.81,675.48,435.49Z" transform="translate(-94.92 -101)"/><path class="cls-22" d="M505,151.1c-17.95-15.51-15.64-33.76-33.55-35.59-13.58-1.39-30.8,8.53-33.86,38.48-3.44,33.63,10.8,44.84,19.31,45.71,10.63,1.09,26.94-11.67,28.78-23.49a49.72,49.72,0,0,1-.61-11.62c1.08-10.47,7.92-11.56,19.08-10.41,4.16.42,8.28,1.21,12.43,1.63C527,156.88,508.75,153.91,505,151.1Z" transform="translate(-94.92 -101)"/><path class="cls-21" d="M541.44,160.85c15.46,14.68,24,34.38,26.41,54.91,2,17,1.82,22.55-1.57,28.38-6.47,10.1-15,20.93-27.7,22.44-21,2.48-29.92-18.3-32.29-38.28-4-34.23,42.78-20.57,38.42-57.41A27.06,27.06,0,0,0,541.44,160.85Z" transform="translate(-94.92 -101)"/><path class="cls-20" d="M496.77,299.6c6.08,8.43,51.28-15.35,64.62-7.72C532.92,272.9,478.64,274.45,496.77,299.6Z" transform="translate(-94.92 -101)"/><path class="cls-10" d="M547.79,542c1,15.89,11.3,25.32,21.12,23.31,5.89-1.22,29.35-22,20.44-40.53-15.46-32.12-50-11.76-66.86-32.83,3.49,8.23,9.49,12.29,15.8,18.18C544.85,516.27,546.57,523,547.79,542Z" transform="translate(-94.92 -101)"/><path class="cls-20" d="M533.49,561.14c-5.71,9.82-6.38,19.44-6.59,28.05-.4,17,8.06,24.67,18.41,25,2.48.08,12-4.08,12.29-12.12.19-6.24-13.33-13.15-16.14-17.92C536.47,575.67,533.47,568.06,533.49,561.14Z" transform="translate(-94.92 -101)"/><g class="cls-23"><path class="cls-24" d="M688.27,414.1c9.9-39.7-9.18-85.29-44.42-104,13.47-51.59-22.59-109.92-71.54-112.75-6.63-36-44.58-67.11-67.48-61.18-2.35-21.12-27.87-41-51.26-32.73-46.2,16.38-37.22,148.1-37.22,148.1V597.68c-2.75,52.44,137,149.31,179.53,39.92,52.43,12.32,98.93-60.32,80.65-99C713.26,519.46,718.3,446.31,688.27,414.1Z" transform="translate(-94.92 -101)"/></g></g></g></svg>