<svg xmlns="http://www.w3.org/2000/svg" viewBox="0 0 602.53 568.76"><defs><style>.cls-1{isolation:isolate;}.cls-2{fill:#fff;}.cls-3{fill:#d1d3d4;}.cls-10,.cls-3{mix-blend-mode:multiply;}.cls-4{fill:none;stroke:#fff;stroke-linecap:round;stroke-linejoin:round;stroke-width:12px;}.cls-5{fill:#ef7668;}.cls-6{fill:#d17605;}.cls-7{fill:#441165;}.cls-8{fill:#feb200;}.cls-9{fill:#ef564b;}.cls-10{fill:#6b58c0;opacity:0.2;}.cls-11{opacity:0.1;}</style></defs><title>meditador</title><g class="cls-1"><g id="Background"><path class="cls-2" d="M286,774.29V774a6.11,6.11,0,0,1-1,1,4.07,4.07,0,0,1-4.12.38,4,4,0,0,1-1.37-1.13,5.09,5.09,0,0,1-.88-1.72,7.33,7.33,0,0,1-.3-2.14,5.59,5.59,0,0,1,1.19-3.79,4,4,0,0,1,3.12-1.36,4.13,4.13,0,0,1,1.89.39,5,5,0,0,1,1.5,1.18V763a1.93,1.93,0,0,1,.32-1.2,1.1,1.1,0,0,1,.91-.41,1.14,1.14,0,0,1,.91.37,1.71,1.71,0,0,1,.31,1.11v11.44a1.59,1.59,0,0,1-.34,1.11,1.17,1.17,0,0,1-.88.37,1.12,1.12,0,0,1-.88-.39A1.57,1.57,0,0,1,286,774.29Zm-5.1-3.81a4.37,4.37,0,0,0,.33,1.79,2.49,2.49,0,0,0,.9,1.12,2.21,2.21,0,0,0,1.24.38,2.28,2.28,0,0,0,1.25-.36,2.4,2.4,0,0,0,.9-1.09,4.35,4.35,0,0,0,.34-1.84,4.19,4.19,0,0,0-.34-1.78,2.56,2.56,0,0,0-.91-1.14,2.18,2.18,0,0,0-2.53,0,2.65,2.65,0,0,0-.87,1.15A4.77,4.77,0,0,0,280.92,770.48Z" transform="translate(-104.5 -210.85)"/><path class="cls-2" d="M297.46,771.13h-5.07a3.38,3.38,0,0,0,.35,1.56,2.48,2.48,0,0,0,.92,1,2.44,2.44,0,0,0,1.27.34,3.24,3.24,0,0,0,.85-.11,2.8,2.8,0,0,0,.75-.34,5.71,5.71,0,0,0,.66-.5l.79-.72a.81.81,0,0,1,.57-.17.93.93,0,0,1,.65.22.78.78,0,0,1,.24.61,1.68,1.68,0,0,1-.27.82,3.32,3.32,0,0,1-.83.91,5,5,0,0,1-1.4.71,6,6,0,0,1-1.93.29,5.19,5.19,0,0,1-3.89-1.43,5.3,5.3,0,0,1-1.38-3.86,6.34,6.34,0,0,1,.34-2.13,4.68,4.68,0,0,1,1-1.69,4.24,4.24,0,0,1,1.61-1.08,5.81,5.81,0,0,1,2.13-.37,5,5,0,0,1,2.6.64,4.23,4.23,0,0,1,1.63,1.65,4.39,4.39,0,0,1,.55,2.07c0,.66-.19,1.08-.56,1.27A3.43,3.43,0,0,1,297.46,771.13Zm-5.07-1.47h4.7a3.18,3.18,0,0,0-.72-2,2.14,2.14,0,0,0-1.64-.66,2.08,2.08,0,0,0-1.59.67A3.39,3.39,0,0,0,292.39,769.66Z" transform="translate(-104.5 -210.85)"/><path class="cls-2" d="M309.27,772.38a3.13,3.13,0,0,1-.52,1.83,3.26,3.26,0,0,1-1.54,1.17,7,7,0,0,1-2.49.39,5.94,5.94,0,0,1-2.39-.43,3.35,3.35,0,0,1-1.47-1.07,2.13,2.13,0,0,1-.48-1.29,1,1,0,0,1,.31-.73,1,1,0,0,1,.77-.3.89.89,0,0,1,.62.2,2,2,0,0,1,.42.56,2.49,2.49,0,0,0,2.47,1.38,2.2,2.2,0,0,0,1.28-.35,1,1,0,0,0,.5-.79,1.09,1.09,0,0,0-.52-1,6.5,6.5,0,0,0-1.71-.6,13.39,13.39,0,0,1-2.18-.7,3.55,3.55,0,0,1-1.34-1,2.19,2.19,0,0,1-.5-1.47,2.63,2.63,0,0,1,.46-1.48,3.15,3.15,0,0,1,1.38-1.1,5.14,5.14,0,0,1,2.18-.42,6.7,6.7,0,0,1,1.81.22,4,4,0,0,1,1.34.56,2.78,2.78,0,0,1,.82.77,1.53,1.53,0,0,1,.28.84,1,1,0,0,1-.3.73,1.18,1.18,0,0,1-.85.29,1.05,1.05,0,0,1-.68-.23,4,4,0,0,1-.64-.69,2.45,2.45,0,0,0-.69-.6,2.13,2.13,0,0,0-1.09-.23,2.08,2.08,0,0,0-1.16.3.88.88,0,0,0-.47.74.79.79,0,0,0,.34.67,2.92,2.92,0,0,0,.92.44c.39.11.92.25,1.6.41a8.89,8.89,0,0,1,2,.7,3.35,3.35,0,0,1,1.16,1A2.15,2.15,0,0,1,309.27,772.38Z" transform="translate(-104.5 -210.85)"/><path class="cls-2" d="M311.92,764a1.35,1.35,0,0,1-.92-.33,1.29,1.29,0,0,1,0-1.85,1.36,1.36,0,0,1,1.81,0,1.13,1.13,0,0,1,.39.94,1.14,1.14,0,0,1-.38.93A1.28,1.28,0,0,1,311.92,764Zm1.28,2.68v7.49a1.67,1.67,0,0,1-.37,1.18,1.24,1.24,0,0,1-.94.4,1.16,1.16,0,0,1-.92-.41,1.71,1.71,0,0,1-.36-1.17v-7.42a1.63,1.63,0,0,1,.36-1.15,1.18,1.18,0,0,1,.92-.4,1.24,1.24,0,0,1,.94.4A1.49,1.49,0,0,1,313.2,766.7Z" transform="translate(-104.5 -210.85)"/><path class="cls-2" d="M324.56,767.13v7.53a8,8,0,0,1-.27,2.22,3.43,3.43,0,0,1-2.48,2.44,8.46,8.46,0,0,1-2.44.3,7.15,7.15,0,0,1-2.4-.38,4.09,4.09,0,0,1-1.62-1,1.75,1.75,0,0,1-.57-1.22,1,1,0,0,1,.32-.77,1.12,1.12,0,0,1,.78-.3,1.27,1.27,0,0,1,1,.5l.43.52a3,3,0,0,0,.49.45,2,2,0,0,0,.65.27,3.91,3.91,0,0,0,.88.09,3.48,3.48,0,0,0,1.56-.28,1.64,1.64,0,0,0,.78-.78,3.06,3.06,0,0,0,.26-1.08c0-.38.05-1,.06-1.85a4.23,4.23,0,0,1-1.38,1.27,3.83,3.83,0,0,1-1.87.44,4,4,0,0,1-2.28-.66A4.36,4.36,0,0,1,315,773a6.76,6.76,0,0,1-.52-2.76,6.36,6.36,0,0,1,.32-2.11,4.49,4.49,0,0,1,.9-1.59,4,4,0,0,1,1.36-1,4.25,4.25,0,0,1,1.69-.33,4.08,4.08,0,0,1,1.91.43,4.58,4.58,0,0,1,1.5,1.32v-.35a1.49,1.49,0,0,1,.33-1,1.12,1.12,0,0,1,.86-.38,1,1,0,0,1,1,.49A3.17,3.17,0,0,1,324.56,767.13Zm-7.51,3.28a3.56,3.56,0,0,0,.69,2.38,2.23,2.23,0,0,0,1.78.81,2.32,2.32,0,0,0,1.22-.34,2.62,2.62,0,0,0,.94-1,3.77,3.77,0,0,0,.36-1.69,3.9,3.9,0,0,0-.7-2.47,2.24,2.24,0,0,0-1.84-.89,2.16,2.16,0,0,0-1.78.85A3.75,3.75,0,0,0,317.05,770.41Z" transform="translate(-104.5 -210.85)"/><path class="cls-2" d="M328.68,766.66V767a4.58,4.58,0,0,1,1.5-1.32,4,4,0,0,1,1.87-.43,3.81,3.81,0,0,1,1.83.45,2.81,2.81,0,0,1,1.2,1.26,2.84,2.84,0,0,1,.34,1,11,11,0,0,1,.07,1.41v4.82a1.72,1.72,0,0,1-.35,1.18,1.22,1.22,0,0,1-.93.4,1.2,1.2,0,0,1-.94-.41,1.71,1.71,0,0,1-.36-1.17v-4.32a4.28,4.28,0,0,0-.36-2,1.45,1.45,0,0,0-1.42-.68,2.13,2.13,0,0,0-1.26.41,2.44,2.44,0,0,0-.84,1.14,8.32,8.32,0,0,0-.19,2.16v3.25a1.73,1.73,0,0,1-.36,1.19,1.24,1.24,0,0,1-1,.39,1.19,1.19,0,0,1-.92-.41,1.71,1.71,0,0,1-.36-1.17V766.7a1.65,1.65,0,0,1,.32-1.11,1.15,1.15,0,0,1,.89-.37,1.17,1.17,0,0,1,1.06.65A1.74,1.74,0,0,1,328.68,766.66Z" transform="translate(-104.5 -210.85)"/><path class="cls-2" d="M344.46,771.13h-5.07a3.38,3.38,0,0,0,.35,1.56,2.48,2.48,0,0,0,.92,1,2.44,2.44,0,0,0,1.27.34,3.18,3.18,0,0,0,.85-.11,2.8,2.8,0,0,0,.75-.34,5.71,5.71,0,0,0,.66-.5c.21-.18.47-.42.79-.72a.81.81,0,0,1,.57-.17.93.93,0,0,1,.65.22.78.78,0,0,1,.24.61,1.68,1.68,0,0,1-.27.82,3.32,3.32,0,0,1-.83.91,5,5,0,0,1-1.4.71,6,6,0,0,1-1.93.29,5.19,5.19,0,0,1-3.89-1.43,5.3,5.3,0,0,1-1.38-3.86,6.34,6.34,0,0,1,.34-2.13,4.68,4.68,0,0,1,1-1.69,4.24,4.24,0,0,1,1.61-1.08,5.81,5.81,0,0,1,2.13-.37,5,5,0,0,1,2.6.64,4.23,4.23,0,0,1,1.63,1.65,4.39,4.39,0,0,1,.55,2.07c0,.66-.19,1.08-.56,1.27A3.43,3.43,0,0,1,344.46,771.13Zm-5.07-1.47h4.7a3.18,3.18,0,0,0-.72-2,2.14,2.14,0,0,0-1.64-.66,2.08,2.08,0,0,0-1.59.67A3.39,3.39,0,0,0,339.39,769.66Z" transform="translate(-104.5 -210.85)"/><path class="cls-2" d="M355,774.29V774a6.52,6.52,0,0,1-1,1,4,4,0,0,1-1.1.57,3.89,3.89,0,0,1-1.3.2,3.81,3.81,0,0,1-1.72-.39,4.14,4.14,0,0,1-1.38-1.13,5.07,5.07,0,0,1-.87-1.72,7.33,7.33,0,0,1-.3-2.14,5.59,5.59,0,0,1,1.18-3.79,4,4,0,0,1,3.13-1.36,4.16,4.16,0,0,1,1.89.39,5.25,5.25,0,0,1,1.5,1.18V763a1.87,1.87,0,0,1,.32-1.2,1.08,1.08,0,0,1,.9-.41,1.11,1.11,0,0,1,.91.37,1.71,1.71,0,0,1,.32,1.11v11.44a1.59,1.59,0,0,1-.34,1.11,1.18,1.18,0,0,1-.89.37,1.11,1.11,0,0,1-.87-.39A1.52,1.52,0,0,1,355,774.29Zm-5.1-3.81a4.37,4.37,0,0,0,.33,1.79,2.41,2.41,0,0,0,.89,1.12,2.24,2.24,0,0,0,1.25.38,2.3,2.3,0,0,0,1.25-.36,2.54,2.54,0,0,0,.9-1.09,4.51,4.51,0,0,0,.34-1.84,4.35,4.35,0,0,0-.34-1.78,2.7,2.7,0,0,0-.91-1.14,2.17,2.17,0,0,0-1.26-.4,2.1,2.1,0,0,0-1.27.41,2.5,2.5,0,0,0-.87,1.15A4.57,4.57,0,0,0,349.93,770.48Z" transform="translate(-104.5 -210.85)"/><path class="cls-2" d="M365.63,762.85v4a5.74,5.74,0,0,1,1.49-1.16,3.93,3.93,0,0,1,1.88-.41,4.14,4.14,0,0,1,2.26.62,4.05,4.05,0,0,1,1.51,1.77,6.53,6.53,0,0,1,.54,2.76,7.32,7.32,0,0,1-.3,2.16,5.11,5.11,0,0,1-.87,1.71,4,4,0,0,1-1.38,1.12,4.08,4.08,0,0,1-1.79.39,4.54,4.54,0,0,1-1.13-.14,3.18,3.18,0,0,1-.89-.38,3.68,3.68,0,0,1-.64-.48,9.68,9.68,0,0,1-.68-.74v.26a1.53,1.53,0,0,1-.36,1.1,1.16,1.16,0,0,1-.89.38,1.11,1.11,0,0,1-.88-.38,1.62,1.62,0,0,1-.32-1.1V763a1.92,1.92,0,0,1,.31-1.19,1.08,1.08,0,0,1,.89-.4,1.14,1.14,0,0,1,.92.38A1.66,1.66,0,0,1,365.63,762.85Zm.12,7.7a3.56,3.56,0,0,0,.71,2.38,2.3,2.3,0,0,0,1.85.84,2.13,2.13,0,0,0,1.69-.86,3.69,3.69,0,0,0,.71-2.43,4.72,4.72,0,0,0-.3-1.77,2.53,2.53,0,0,0-.83-1.14,2.08,2.08,0,0,0-1.27-.41,2.27,2.27,0,0,0-1.32.41,2.69,2.69,0,0,0-.91,1.16A4.59,4.59,0,0,0,365.75,770.55Z" transform="translate(-104.5 -210.85)"/><path class="cls-2" d="M376.67,776.09l.24-.58-3.19-8a3,3,0,0,1-.3-1,1.23,1.23,0,0,1,.17-.62,1.27,1.27,0,0,1,.47-.45,1.21,1.21,0,0,1,.63-.18,1,1,0,0,1,.84.36,3.45,3.45,0,0,1,.51,1l2.19,6.38,2.08-5.93a8.22,8.22,0,0,1,.45-1.13,1.27,1.27,0,0,1,.42-.55,1.13,1.13,0,0,1,.63-.15,1.2,1.2,0,0,1,.57.16,1.18,1.18,0,0,1,.41.42,1.16,1.16,0,0,1,.15.57c0,.11-.07.29-.12.51s-.13.45-.21.67l-3.38,8.85a10.42,10.42,0,0,1-.86,1.84,2.91,2.91,0,0,1-1.1,1,4,4,0,0,1-1.86.36,4.6,4.6,0,0,1-1.71-.25.91.91,0,0,1-.57-.91.87.87,0,0,1,.27-.68,1.18,1.18,0,0,1,.8-.25,1.4,1.4,0,0,1,.41.06,1.91,1.91,0,0,0,.43.06,1.51,1.51,0,0,0,.7-.13,1.3,1.3,0,0,0,.46-.47A6.13,6.13,0,0,0,376.67,776.09Z" transform="translate(-104.5 -210.85)"/><path class="cls-2" d="M414.23,765.45h.62v-.78a5,5,0,0,1,.31-1.94,2,2,0,0,1,1-1,5,5,0,0,1,2-.33c1.52,0,2.28.37,2.28,1.12a.87.87,0,0,1-.24.61.76.76,0,0,1-.56.26,4,4,0,0,1-.53-.06,5.56,5.56,0,0,0-.62-.06.91.91,0,0,0-.91.42,3,3,0,0,0-.19,1.18v.62h.63c1,0,1.48.3,1.48.9,0,.41-.13.69-.39.8a2.89,2.89,0,0,1-1.09.17h-.63v6.87a1.66,1.66,0,0,1-.37,1.17,1.22,1.22,0,0,1-.95.41,1.18,1.18,0,0,1-.91-.41,1.66,1.66,0,0,1-.37-1.17v-6.87h-.71a1.31,1.31,0,0,1-.89-.26.84.84,0,0,1-.32-.68c0-.62.44-.93,1.3-.93" transform="translate(-104.5 -210.85)"/><path class="cls-2" d="M422.72,772v2.17a1.7,1.7,0,0,1-.37,1.18,1.22,1.22,0,0,1-.94.4,1.18,1.18,0,0,1-.92-.4,1.72,1.72,0,0,1-.36-1.18V767c0-1.17.41-1.75,1.26-1.75a1.06,1.06,0,0,1,.93.41,2.24,2.24,0,0,1,.32,1.21,4.32,4.32,0,0,1,.95-1.21,2,2,0,0,1,1.3-.41,3.36,3.36,0,0,1,1.59.41,1.21,1.21,0,0,1,.77,1.08,1.1,1.1,0,0,1-1,1.1,3.8,3.8,0,0,1-.69-.18,3.19,3.19,0,0,0-1-.18,1.46,1.46,0,0,0-.93.3,2,2,0,0,0-.56.89,6.91,6.91,0,0,0-.28,1.4c0,.54-.07,1.21-.07,2" transform="translate(-104.5 -210.85)"/><path class="cls-2" d="M434.64,771.13h-5.07a3.52,3.52,0,0,0,.36,1.56,2.41,2.41,0,0,0,.92,1,2.49,2.49,0,0,0,1.27.34,3.24,3.24,0,0,0,.85-.11,2.62,2.62,0,0,0,.74-.35,4.17,4.17,0,0,0,.67-.5l.79-.71a.81.81,0,0,1,.57-.18,1,1,0,0,1,.64.22.77.77,0,0,1,.25.62,1.68,1.68,0,0,1-.27.82,3.32,3.32,0,0,1-.83.91,5.09,5.09,0,0,1-1.4.71,6,6,0,0,1-1.93.29,5.17,5.17,0,0,1-3.89-1.43,5.28,5.28,0,0,1-1.39-3.86,6.45,6.45,0,0,1,.35-2.14,4.61,4.61,0,0,1,1-1.69,4.25,4.25,0,0,1,1.62-1.07,5.72,5.72,0,0,1,2.12-.38,5,5,0,0,1,2.61.65,4.17,4.17,0,0,1,1.63,1.65,4.39,4.39,0,0,1,.54,2.08,1.29,1.29,0,0,1-.56,1.26,3.4,3.4,0,0,1-1.58.29m-5.07-1.47h4.7a3.15,3.15,0,0,0-.71-2,2.15,2.15,0,0,0-1.64-.66,2,2,0,0,0-1.59.67,3.3,3.3,0,0,0-.76,2" transform="translate(-104.5 -210.85)"/><path class="cls-2" d="M445.43,771.13h-5.07a3.51,3.51,0,0,0,.35,1.56,2.37,2.37,0,0,0,2.2,1.36,3.16,3.16,0,0,0,.84-.11,2.55,2.55,0,0,0,.75-.35,4.09,4.09,0,0,0,.66-.5c.2-.17.47-.41.79-.71a.85.85,0,0,1,.57-.18,1,1,0,0,1,.65.22.77.77,0,0,1,.24.62,1.68,1.68,0,0,1-.27.82,3.17,3.17,0,0,1-.83.91,5,5,0,0,1-1.4.71,5.94,5.94,0,0,1-1.93.29,5.19,5.19,0,0,1-3.89-1.43,5.32,5.32,0,0,1-1.39-3.86,6.45,6.45,0,0,1,.35-2.14,4.77,4.77,0,0,1,1-1.69,4.21,4.21,0,0,1,1.61-1.07,5.81,5.81,0,0,1,2.13-.38,5.05,5.05,0,0,1,2.61.65A4.08,4.08,0,0,1,447,767.5a4.4,4.4,0,0,1,.55,2.08,1.29,1.29,0,0,1-.56,1.26,3.43,3.43,0,0,1-1.58.29m-5.07-1.47h4.7a3.15,3.15,0,0,0-.71-2,2.19,2.19,0,0,0-1.65-.66,2.08,2.08,0,0,0-1.59.67,3.3,3.3,0,0,0-.75,2" transform="translate(-104.5 -210.85)"/><path class="cls-2" d="M451.11,766.68V767a5.1,5.1,0,0,1,1.53-1.32,3.55,3.55,0,0,1,1.78-.43,4.12,4.12,0,0,1,3.79,2.42,6.34,6.34,0,0,1,.59,2.82,6.77,6.77,0,0,1-.34,2.2,4.93,4.93,0,0,1-.92,1.68,4.13,4.13,0,0,1-1.39,1,4.23,4.23,0,0,1-1.73.37,3.6,3.6,0,0,1-1.87-.45,5.26,5.26,0,0,1-1.44-1.31v3.9c0,1.13-.41,1.71-1.24,1.71a1,1,0,0,1-1-.44,2.81,2.81,0,0,1-.24-1.3V766.69a1.69,1.69,0,0,1,.32-1.11,1.27,1.27,0,0,1,1.78,0,1.54,1.54,0,0,1,.35,1.09m5.09,3.77a4.48,4.48,0,0,0-.32-1.77,2.61,2.61,0,0,0-.86-1.12,2.06,2.06,0,0,0-1.24-.4A2.32,2.32,0,0,0,452,768a3.73,3.73,0,0,0-.74,2.5,3.59,3.59,0,0,0,.74,2.4,2.27,2.27,0,0,0,1.81.86,2.17,2.17,0,0,0,1.2-.37,2.56,2.56,0,0,0,.88-1.13,4.5,4.5,0,0,0,.34-1.81" transform="translate(-104.5 -210.85)"/><path class="cls-2" d="M461.41,764a1.35,1.35,0,0,1-.92-.33,1.28,1.28,0,0,1,0-1.85,1.39,1.39,0,0,1,1.8,0,1.19,1.19,0,0,1,.4,1,1.21,1.21,0,0,1-.38.94,1.36,1.36,0,0,1-.91.33m1.29,2.68v7.5a1.72,1.72,0,0,1-.37,1.18,1.26,1.26,0,0,1-.95.4,1.17,1.17,0,0,1-.92-.41,1.72,1.72,0,0,1-.36-1.17v-7.42a1.66,1.66,0,0,1,.36-1.16,1.19,1.19,0,0,1,.92-.39,1.25,1.25,0,0,1,.95.39,1.54,1.54,0,0,1,.37,1.08" transform="translate(-104.5 -210.85)"/><path class="cls-2" d="M471.05,774.58l-2.28-3.76-1.41,1.32v2.07a1.59,1.59,0,0,1-.39,1.15,1.24,1.24,0,0,1-.91.41,1.19,1.19,0,0,1-.94-.4,1.77,1.77,0,0,1-.34-1.18V763.13a2.24,2.24,0,0,1,.33-1.32,1.11,1.11,0,0,1,.95-.45,1.2,1.2,0,0,1,.95.41,1.84,1.84,0,0,1,.35,1.21v6.29l2.92-3.06a6.41,6.41,0,0,1,.83-.78,1.1,1.1,0,0,1,.68-.21,1.13,1.13,0,0,1,.82.31,1,1,0,0,1,.32.77c0,.38-.35.89-1.05,1.52l-1.38,1.27,2.66,4.18c.19.31.34.54.42.7a1,1,0,0,1,.13.47,1.34,1.34,0,0,1-.34,1,1.15,1.15,0,0,1-.88.36,1,1,0,0,1-.74-.26,6.75,6.75,0,0,1-.7-.93" transform="translate(-104.5 -210.85)"/><path class="cls-2" d="M476.69,775.77a1.44,1.44,0,0,1-1-.39,1.3,1.3,0,0,1-.43-1.06,1.37,1.37,0,0,1,.41-1,1.35,1.35,0,0,1,1-.42,1.45,1.45,0,0,1,1,.41,1.47,1.47,0,0,1,0,2.06,1.45,1.45,0,0,1-1,.39" transform="translate(-104.5 -210.85)"/><path class="cls-2" d="M489.59,772.56a2.27,2.27,0,0,1-.29,1,3.42,3.42,0,0,1-.89,1,4.48,4.48,0,0,1-1.49.8,6.14,6.14,0,0,1-2,.31,5,5,0,0,1-3.76-1.4,5.2,5.2,0,0,1-1.35-3.76,6.17,6.17,0,0,1,.62-2.82,4.48,4.48,0,0,1,1.78-1.9,6.05,6.05,0,0,1,4.65-.37,4.85,4.85,0,0,1,1.43.76,3.65,3.65,0,0,1,.88,1,1.92,1.92,0,0,1,.31,1,1,1,0,0,1-.34.79,1.19,1.19,0,0,1-.84.33.85.85,0,0,1-.54-.17,2.72,2.72,0,0,1-.48-.54,3.89,3.89,0,0,0-1-1.08,2.28,2.28,0,0,0-1.32-.36,2.23,2.23,0,0,0-1.85.89,3.89,3.89,0,0,0-.71,2.46,4.79,4.79,0,0,0,.19,1.35,3.08,3.08,0,0,0,.52,1,2.14,2.14,0,0,0,.82.65,2.42,2.42,0,0,0,1.07.23,2.36,2.36,0,0,0,1.33-.36,3.06,3.06,0,0,0,1-1.1,2.81,2.81,0,0,1,.51-.69,1,1,0,0,1,1.46.12,1.16,1.16,0,0,1,.32.77" transform="translate(-104.5 -210.85)"/><path class="cls-2" d="M500.78,770.5a6.1,6.1,0,0,1-.36,2.13,4.64,4.64,0,0,1-1,1.68,4.69,4.69,0,0,1-1.64,1.08,5.83,5.83,0,0,1-2.14.38,5.52,5.52,0,0,1-2.12-.39,4.48,4.48,0,0,1-1.62-1.08,4.91,4.91,0,0,1-1.06-1.67,6.61,6.61,0,0,1-.34-2.13,6.44,6.44,0,0,1,.35-2.16,4.72,4.72,0,0,1,1-1.68,4.81,4.81,0,0,1,1.63-1.07,6,6,0,0,1,2.12-.37,5.83,5.83,0,0,1,2.14.38,4.78,4.78,0,0,1,1.65,1.08,5,5,0,0,1,1,1.67,6.38,6.38,0,0,1,.35,2.15m-2.6,0a3.92,3.92,0,0,0-.7-2.47,2.24,2.24,0,0,0-1.88-.89,2.37,2.37,0,0,0-1.34.39,2.51,2.51,0,0,0-.89,1.17,4.71,4.71,0,0,0-.31,1.8,4.62,4.62,0,0,0,.31,1.77,2.53,2.53,0,0,0,.88,1.17,2.38,2.38,0,0,0,1.35.4,2.26,2.26,0,0,0,1.88-.89,3.9,3.9,0,0,0,.7-2.45" transform="translate(-104.5 -210.85)"/><path class="cls-2" d="M510.67,770.69v3.44a1.77,1.77,0,0,1-.37,1.23,1.27,1.27,0,0,1-1,.41,1.22,1.22,0,0,1-.95-.41,1.82,1.82,0,0,1-.37-1.23V770a14.71,14.71,0,0,0-.06-1.52,1.75,1.75,0,0,0-.36-.89,1.18,1.18,0,0,0-.94-.35,1.64,1.64,0,0,0-1.67.88,6.14,6.14,0,0,0-.41,2.51v3.5a1.84,1.84,0,0,1-.36,1.23,1.34,1.34,0,0,1-1.93,0,1.79,1.79,0,0,1-.38-1.23v-7.42a1.59,1.59,0,0,1,.34-1.11,1.15,1.15,0,0,1,.89-.38,1.21,1.21,0,0,1,.89.36,1.29,1.29,0,0,1,.35,1v.24a4.53,4.53,0,0,1,1.45-1.17,3.71,3.71,0,0,1,1.71-.39,3.42,3.42,0,0,1,1.68.39,3.1,3.1,0,0,1,1.16,1.17,4.58,4.58,0,0,1,1.41-1.17,3.53,3.53,0,0,1,1.66-.39,3.82,3.82,0,0,1,1.84.42,2.67,2.67,0,0,1,1.14,1.19,5.59,5.59,0,0,1,.33,2.22v5.06a1.82,1.82,0,0,1-.36,1.23,1.28,1.28,0,0,1-1,.41,1.26,1.26,0,0,1-1-.41,1.79,1.79,0,0,1-.38-1.23v-4.36a11.87,11.87,0,0,0-.06-1.34,1.53,1.53,0,0,0-.39-.84,1.23,1.23,0,0,0-1-.35,1.74,1.74,0,0,0-1,.31,2.09,2.09,0,0,0-.72.81,6.54,6.54,0,0,0-.29,2.33" transform="translate(-104.5 -210.85)"/><path class="cls-2" d="M390,769.87v0Z" transform="translate(-104.5 -210.85)"/><path class="cls-2" d="M390.1,770.7h0c-.05-.24-.09-.47-.12-.71C390,770.23,390.05,770.46,390.1,770.7Z" transform="translate(-104.5 -210.85)"/><path class="cls-2" d="M391,773.1l0,0Z" transform="translate(-104.5 -210.85)"/><path class="cls-2" d="M390.87,772.94l-.06-.13Z" transform="translate(-104.5 -210.85)"/><path class="cls-2" d="M390.34,771.62a9,9,0,0,0,.46,1.16,9.65,9.65,0,0,1-.46-1.16Z" transform="translate(-104.5 -210.85)"/><path class="cls-2" d="M400,759.93a7.33,7.33,0,0,1,1.3.11l.12-.76a8,8,0,0,0-2.71-.24l-.12-.41a1.06,1.06,0,1,0-.44,0l.13.46a10.81,10.81,0,0,0-2.93.87l.23.7a12.29,12.29,0,0,1,2.62-.61A17.84,17.84,0,0,1,400,759.93Z" transform="translate(-104.5 -210.85)"/><path class="cls-2" d="M390.94,763.79h0l.12-.14-.32-.23-.49-.35a7.47,7.47,0,0,0-1.4,2.05.27.27,0,0,0-.09-.12,1,1,0,0,0-.75-.3h0a.59.59,0,0,1-.43-.15.64.64,0,0,0,.15-.41.67.67,0,1,0-.67.67l.16,0a1,1,0,0,0,.81.33.55.55,0,0,1,.44.16.72.72,0,0,1,.16.43h0a7.15,7.15,0,0,0-.31,2.67l1.05,0a8.07,8.07,0,0,1,.37-2.23A10.21,10.21,0,0,1,390.94,763.79Z" transform="translate(-104.5 -210.85)"/><path class="cls-2" d="M409.2,760.81a.67.67,0,0,0-.66.67.47.47,0,0,0,0,.17,1,1,0,0,0-.34.81.59.59,0,0,1-.15.44.83.83,0,0,1-.3.14,8.14,8.14,0,0,0-1.75-1.78l-.76.81a12.09,12.09,0,0,1,1.72,2,14.24,14.24,0,0,1,1.14,2l1-.49A15.24,15.24,0,0,0,408,763.4a1,1,0,0,0,.33-.19.94.94,0,0,0,.29-.76.64.64,0,0,1,.15-.44.68.68,0,0,0,.41.14.67.67,0,0,0,0-1.34Z" transform="translate(-104.5 -210.85)"/><path class="cls-2" d="M406.55,770a23.11,23.11,0,0,1-6.78,2,26,26,0,0,1-3.43.22,28.83,28.83,0,0,1-3.57-.22,23.54,23.54,0,0,1-2.43-.42,9.65,9.65,0,0,0,.46,1.16,0,0,0,0,0,0,0l.06.13.07.13,0,0a7.15,7.15,0,0,0,1.08,1.55,5.59,5.59,0,0,0,2.92,1.83h0a12.08,12.08,0,0,0,3.29.42,14.5,14.5,0,0,0,5.68-1.16,9.34,9.34,0,0,0,3.25-2.67,7.56,7.56,0,0,0,1-2.3,6,6,0,0,0,.15-1.82A19.3,19.3,0,0,1,406.55,770Z" transform="translate(-104.5 -210.85)"/><path class="cls-2" d="M391.39,764.12a10.62,10.62,0,0,0-1.14,2.26,8.38,8.38,0,0,0-.34,2.46h0c0,.34,0,.68,0,1v0s0,.08,0,.12c0,.24.07.47.12.71a26.87,26.87,0,0,0,9.55.5,21.8,21.8,0,0,0,6.5-1.93,13.4,13.4,0,0,0,2.12-1.24,14.06,14.06,0,0,0-1.74-3.64c-2-2.87-4.17-3.6-5.28-3.79a8.19,8.19,0,0,0-1.25-.11,16.85,16.85,0,0,0-1.74.12,11.67,11.67,0,0,0-2.53.6,9.72,9.72,0,0,0-3.53,2l0,0A7.21,7.21,0,0,0,391.39,764.12Zm12.27-.66a1.74,1.74,0,1,1-1.74,1.74A1.74,1.74,0,0,1,403.66,763.46Zm-8.24-.07a2.82,2.82,0,1,1-2.82,2.82A2.81,2.81,0,0,1,395.42,763.39Z" transform="translate(-104.5 -210.85)"/></g><g id="Objects"><path class="cls-3" d="M566.32,724.16c0,6.23-74.46,11.28-166.32,11.28s-166.32-5.05-166.32-11.28S308.14,712.88,400,712.88,566.32,717.93,566.32,724.16Z" transform="translate(-104.5 -210.85)"/><path class="cls-4" d="M661,472.88c-4.78,1.24-4.44,6.06-1.55,20.14a21.26,21.26,0,0,1-7.88,21.47c14.9-24.82-6.34-44.41-11.23-40.84-4.31,3.14-2.38,7.85,4.51,19.86s-1.77,20.28-1.77,20.28c1.61-10.48-.24-21.6-9.45-24.45-6.54-2-8.57,2.52-8.74,5.76-2.51-9.58-30.12-13.85-23,13.16,3.81,14.47,10.78,21.38,17,24.68a99,99,0,0,1-8.2,28.68c-9.53,20.29-24.9,31.83-45.69,34.31-40.37,4.83-64.06-23.46-72.54-36.16l11.45-6.61a5.5,5.5,0,0,0,1.19-8.6l-8.5-8.73a102.5,102.5,0,0,0,18.59-2.15c16.75-3.39,38.8-12.26,48.67-35a57.28,57.28,0,0,0,4.63-22.95c17.25-8.26,26.52-22.84,26.89-42.39a77.44,77.44,0,0,0-4.25-25.86,33.45,33.45,0,0,0,4-11.56c4.23-25.43-8.93-41.87-9.49-42.55a4,4,0,0,0-.69-.67c.21-1,.4-2,.58-3,3.33-20.38-3.19-48.81-32.15-63.15-3.2-19.12-17-32.73-39.94-39.5a119.93,119.93,0,0,0-32.61-4.49c-1-1-2.09-2.06-3.18-3.16-4.95-5-10.53-10.63-18.2-15s-17.48-7.48-30.91-7.48c-9.87,0-18.82,6.47-25.16,18.21a57.86,57.86,0,0,0-3.37,7.49,59.23,59.23,0,0,0-3.36-7.49c-6.35-11.74-15.29-18.21-25.17-18.21-13.43,0-23.23,3.11-30.9,7.48s-13.25,10-18.2,15q-1.64,1.65-3.18,3.16A119.89,119.89,0,0,0,286.58,247c-23,6.77-36.75,20.38-39.95,39.5-28.95,14.34-35.48,42.77-32.14,63.15.17,1,.36,2,.58,3a4,4,0,0,0-.69.67c-.55.68-13.73,17.12-9.5,42.55a33.45,33.45,0,0,0,4,11.56,77.44,77.44,0,0,0-4.25,25.86c.38,19.55,9.65,34.13,26.89,42.39a57.28,57.28,0,0,0,4.63,22.95c9.87,22.79,31.92,31.66,48.67,35a102.5,102.5,0,0,0,18.6,2.15l-8.51,8.73a5.5,5.5,0,0,0,1.18,8.6l11.46,6.61c-8.48,12.7-32.17,41-72.55,36.16-20.78-2.48-36.14-14-45.68-34.31a99.11,99.11,0,0,1-8.21-28.68c6.23-3.3,13.21-10.21,17-24.68,7.11-27-20.52-22.74-23-13.16-.17-3.24-2.2-7.77-8.74-5.76-9.22,2.85-11,14-9.46,24.45,0,0-8.64-8.27-1.76-20.28s8.82-16.72,4.51-19.86c-4.88-3.57-26.13,16-11.24,40.84A21.27,21.27,0,0,1,140.57,493c2.88-14.08,3.21-18.9-1.55-20.14-7.42-1.94-28.39,53.85,24.65,62.3a116.92,116.92,0,0,0,9.48,33.37c12.09,26.12,32.76,41.63,59.78,44.86a94.5,94.5,0,0,0,11.2.67c22.18,0,42.78-8.08,60.12-23.72a111.87,111.87,0,0,0,18.59-21.78l10.59,6.12-9.22,57c-20.12.17-42.6,1.81-47.45,8-9.18,11.72,107,20.93,107,20.93s5.09,23.4,10.7,23.4,0-33.63,0-33.63L360,646.19H440l-34.43,4.2S400,684,405.54,684s10.71-23.4,10.71-23.4,116.16-9.21,107-20.93c-4.85-6.19-27.33-7.83-47.46-8l-9.22-57,10.6-6.12a111.75,111.75,0,0,0,18.58,21.78c17.33,15.64,37.94,23.72,60.12,23.72a94.33,94.33,0,0,0,11.19-.67c27-3.23,47.7-18.74,59.79-44.86a117.26,117.26,0,0,0,9.48-33.37C689.37,526.73,668.39,470.94,661,472.88ZM166.53,506.8c3.05-7.68,6.78-3.41,8.43-9.68a5.75,5.75,0,0,0,.41,1.55s.78,3.33,7.83,2.53,2.07,17.78-2.89,18.9S161.54,519.42,166.53,506.8Zm453.16,13.3c-5-1.12-9.93-19.71-2.88-18.9s7.83-2.53,7.83-2.53a6.15,6.15,0,0,0,.41-1.55c1.65,6.27,5.37,2,8.42,9.68C638.46,519.42,624.66,521.22,619.69,520.1Z" transform="translate(-104.5 -210.85)"/><path class="cls-5" d="M311.15,553.83c-.24.49-24.6,48.27-76.13,42.11-20.77-2.49-36.14-14-45.68-34.32a99.4,99.4,0,0,1-8.21-28.69c6.23-3.29,13.2-10.2,17-24.68,7.11-27-20.52-22.72-23-13.15-.17-3.24-2.2-7.78-8.74-5.76-9.21,2.85-11.06,14-9.46,24.45,0,0-8.65-8.27-1.76-20.28s8.82-16.72,4.51-19.86c-4.89-3.56-26.13,16-11.23,40.84A21.23,21.23,0,0,1,140.57,493c2.88-14.1,3.21-18.91-1.56-20.15-7.4-1.94-28.38,53.86,24.66,62.3a117.12,117.12,0,0,0,9.48,33.36c12.09,26.13,32.76,41.64,59.78,44.87a94.63,94.63,0,0,0,11.2.67c22.18,0,42.78-8.09,60.12-23.72a106.9,106.9,0,0,0,22.66-28.7Zm-144.61-47c3-7.68,6.77-3.41,8.42-9.69h0a6.18,6.18,0,0,0,.4,1.56s.79,3.33,7.83,2.53,2.09,17.78-2.88,18.9S161.54,519.42,166.54,506.8Z" transform="translate(-104.5 -210.85)"/><polygon class="cls-6" points="239.19 300.34 230.31 351.94 203.25 336.32 238.33 300.34 239.19 300.34"/><path class="cls-7" d="M354.42,502.15a5.55,5.55,0,0,1,1.21,4.48l-11.32,65.8a5.53,5.53,0,0,1-3.09,4.05,5.61,5.61,0,0,1-2.33.52,5.48,5.48,0,0,1-2.75-.74l-40-23.1a5.5,5.5,0,0,1-1.19-8.6l41.64-42.7a5.51,5.51,0,0,1,3.93-1.67h9.72A5.52,5.52,0,0,1,354.42,502.15Zm-19.61,60.64,8.87-51.6h-.85l-35.09,36Z" transform="translate(-104.5 -210.85)"/><path class="cls-5" d="M473.09,561.66a106.9,106.9,0,0,0,22.66,28.7c17.34,15.63,37.94,23.72,60.12,23.72a94.5,94.5,0,0,0,11.2-.67c27-3.23,47.69-18.74,59.78-44.87a117.12,117.12,0,0,0,9.48-33.36c53-8.44,32.06-64.24,24.66-62.3-4.77,1.24-4.44,6.05-1.56,20.15a21.24,21.24,0,0,1-7.86,21.46c14.89-24.82-6.35-44.4-11.24-40.84-4.31,3.14-2.38,7.85,4.51,19.86s-1.76,20.28-1.76,20.28c1.6-10.48-.25-21.6-9.45-24.45-6.55-2-8.58,2.52-8.75,5.76-2.5-9.57-30.13-13.85-23,13.15,3.81,14.48,10.78,21.39,17,24.68a99.07,99.07,0,0,1-8.21,28.69c-9.53,20.29-24.91,31.83-45.68,34.32-51.53,6.16-75.89-41.62-76.13-42.11Zm146.6-41.56c-5-1.12-9.93-19.7-2.88-18.9s7.83-2.53,7.83-2.53a6.18,6.18,0,0,0,.4-1.56h0c1.66,6.28,5.38,2,8.43,9.69C638.46,519.42,624.66,521.22,619.69,520.1Z" transform="translate(-104.5 -210.85)"/><polygon class="cls-6" points="351.82 300.34 360.7 351.94 387.76 336.32 352.68 300.34 351.82 300.34"/><path class="cls-7" d="M449.79,500.19h9.71a5.51,5.51,0,0,1,3.93,1.67l41.64,42.7a5.5,5.5,0,0,1-1.19,8.6l-40,23.1a5.48,5.48,0,0,1-2.75.74,5.61,5.61,0,0,1-2.33-.52,5.53,5.53,0,0,1-3.09-4.05l-11.32-65.8a5.5,5.5,0,0,1,5.42-6.44Zm42.47,47-35.09-36h-.85l8.87,51.6Z" transform="translate(-104.5 -210.85)"/><path class="cls-7" d="M523.24,639.69c-4.84-6.19-27.32-7.83-47.45-8L453.56,494.26a5.5,5.5,0,0,0-5.43-4.62H351.88a5.5,5.5,0,0,0-5.43,4.62L324.21,631.69c-20.12.17-42.6,1.81-47.45,8-9.17,11.72,107,20.93,107,20.93s5.09,23.4,10.7,23.4,0-33.63,0-33.63L360,646.19H440l-34.42,4.2s-5.61,33.63,0,33.63,10.7-23.4,10.7-23.4S532.41,651.41,523.24,639.69ZM356.56,500.64h86.89l18.6,115H338Z" transform="translate(-104.5 -210.85)"/><polygon class="cls-8" points="357.55 404.75 233.47 404.75 247.44 318.32 252.06 289.79 338.95 289.79 343.75 319.5 357.55 404.75"/><path class="cls-6" d="M448.25,530.35c-45.71,29.61-91.65,1.79-96.31-1.18l4.62-28.53h86.88Z" transform="translate(-104.5 -210.85)"/><path class="cls-5" d="M440.2,507.1c-9.81,9.06-24.19,14.77-40.2,14.77s-30.38-5.71-40.19-14.77c.11-.19.21-.4.3-.59.19-.37.37-.75.55-1.13.36-.73.67-1.47,1-2.22.16-.41.32-.8.47-1.21s.28-.77.41-1.15.25-.77.36-1.16.23-.77.33-1.16c.22-.78.4-1.56.55-2.33.07-.34.14-.68.19-1a34.74,34.74,0,0,0,.44-3.64c.07-.76.09-1.53.09-2.3a26.32,26.32,0,0,0,9.71,1.87c5,0,10.61-1.4,16.84-5.14a21.78,21.78,0,0,0,9-9.94,21.8,21.8,0,0,0,9,9.94c6.22,3.74,11.87,5.14,16.83,5.14a26.32,26.32,0,0,0,9.71-1.87c0,.77,0,1.54.09,2.3.08,1.21.24,2.43.44,3.64.06.33.12.67.19,1,.16.77.34,1.55.55,2.33.1.39.21.77.34,1.16a39.18,39.18,0,0,0,2.21,5.74C439.61,506,439.9,506.53,440.2,507.1Z" transform="translate(-104.5 -210.85)"/><path class="cls-5" d="M346.76,510.23c-6,6.86-23.85,22-60.11,14.62-50.17-10.21-46.16-49.8-46-51.47a4.5,4.5,0,0,0-2.74-4.71c-29.18-12.17-25.52-40.45-22-53.42a31.94,31.94,0,0,0,16.19,5.67c1.22,9.2,6.17,31,26.14,46.87,21.53,17.09,53.45,21.68,94.85,13.67.43.46.94,1,1.51,1.49C357,491.33,354,501.92,346.76,510.23Z" transform="translate(-104.5 -210.85)"/><path class="cls-5" d="M381.92,436.26a4.51,4.51,0,0,1,1.85-2.94c.52-.38,11.8-8.9,7.22-28.82-9.5,13.26-22,15.84-22.59,16a38.29,38.29,0,0,1-6.79.54c-6.86,0-17.67-1.49-26.44-9.46-9.66-8.78-14.14-22.87-13.36-42-18,2.87-46,.88-53.09-23.56a4.51,4.51,0,0,1,8.66-2.51c7.49,25.88,47.82,16.2,48.22,16.1a4.54,4.54,0,0,1,4,1,4.48,4.48,0,0,1,1.55,3.83c-1.77,19.18,1.61,32.79,10.05,40.46,10.41,9.46,25.31,6.77,25.45,6.74.44-.09,12-2.64,19.5-16.39,12.95-23.75,3.51-61.51-7.13-89.82-11-.68-21.15-10.63-26.26-16.56-4.9,6.17-12.58,12-24.59,15.26a5,5,0,0,1-1.2.16,4.52,4.52,0,0,1-1.19-8.87c31.1-8.53,26.7-36.05,26.5-37.23a4.51,4.51,0,0,1,8.89-1.54,45.16,45.16,0,0,1-1.75,19.69,41.51,41.51,0,0,1-1.69,4.37c4.26,5.39,14.15,15.74,22.47,15.74h.25c3.46-.09,6.46-2.14,9.16-6.27,7.14-10.89,8.74-32.87-.94-50.79a35.47,35.47,0,0,0-6.4-8.62c-2.89-2.75-6.52-4.86-10.84-4.86-23.09,0-33.51,10.51-42.7,19.78-1.62,1.64-3.15,3.18-4.73,4.66a4.42,4.42,0,0,1-3.27,1.2,111.9,111.9,0,0,0-31.85,4.17c-20.28,6-31.6,17.49-33.65,34.08.07,2.72,1.15,23.54,18.81,23.54h.08a4.51,4.51,0,0,1,0,9h-.11c-7.33,0-13.45-2.39-18.19-7.12C250.31,309.65,248,302,247,296.53c-21.41,12.57-26.39,34.44-23.58,51.62,2.29,14,9.78,24.67,17.82,25.47a4.51,4.51,0,0,1-.45,9l-.45,0c-9-.91-16.94-8.14-21.78-19.1a48.33,48.33,0,0,0-4.75,30.89c3.13,18.81,20.07,17.78,22,17.6H236c.14,0,.27,0,.41,0,18.3.92,25.2-6.45,25.49-6.76a4.47,4.47,0,0,1,6.33-.49,4.54,4.54,0,0,1,.5,6.39c-.36.41-8.26,9.42-27.49,9.94,1.37,8.49,6.17,26.72,22.68,39.75,19.8,15.64,50.05,19.45,89.91,11.32a4.52,4.52,0,0,1,4.58,1.8,19.29,19.29,0,0,0,2.58,2.81,4.74,4.74,0,0,1,1,.86c4.45,3.62,12.83,7.55,24.36.61a12.54,12.54,0,0,0,6.23-8.53c2.13-10.33-6.42-25.17-9.89-30A4.46,4.46,0,0,1,381.92,436.26Zm-56.2,25h-.1a19.32,19.32,0,0,1-13.23-5.55,48.44,48.44,0,0,1-8,.71c-7.5,0-13.51-2.13-17.94-6.4-10.07-9.71-7.37-26.47-7.24-27.19a4.51,4.51,0,0,1,8.9,1.51c0,.17-2,12.84,4.62,19.2,3,2.9,7.62,4.18,13.65,3.81a43.92,43.92,0,0,1-3.71-11.21,4.51,4.51,0,1,1,8.89-1.47c0,.23,3.09,17.33,14.21,17.57a4.51,4.51,0,0,1-.09,9Z" transform="translate(-104.5 -210.85)"/><path class="cls-5" d="M562.07,468.67a4.49,4.49,0,0,0-2.75,4.71c.19,1.67,4.2,41.26-46,51.47-36.26,7.39-54.13-7.76-60.12-14.62C446,501.92,443,491.33,445.41,483c.57-.53,1.08-1,1.52-1.49,41.4,8,73.31,3.42,94.85-13.67,20-15.84,24.91-37.67,26.13-46.87a31.88,31.88,0,0,0,16.19-5.67C587.58,428.22,591.24,456.5,562.07,468.67Z" transform="translate(-104.5 -210.85)"/><path class="cls-5" d="M581.47,363.5c-4.83,11-12.76,18.19-21.78,19.1l-.45,0a4.51,4.51,0,0,1-.45-9c8-.8,15.54-11.51,17.82-25.47,2.82-17.18-2.17-39-23.57-51.62-1,5.51-3.35,13.12-8.92,18.67-4.73,4.73-10.85,7.12-18.19,7.12h-.1a4.51,4.51,0,0,1,0-9h.08c17.66,0,18.74-20.82,18.82-23.54-2-16.59-13.37-28.06-33.66-34.08a111.84,111.84,0,0,0-31.85-4.17,4.44,4.44,0,0,1-3.27-1.2c-1.58-1.48-3.1-3-4.73-4.66-9.18-9.27-19.6-19.78-42.7-19.78-4.32,0-7.95,2.11-10.83,4.86a35.21,35.21,0,0,0-6.4,8.62c-9.68,17.92-8.09,39.9-.95,50.79,2.71,4.13,5.7,6.18,9.17,6.27h.24c8.32,0,18.22-10.35,22.47-15.74a39.3,39.3,0,0,1-1.68-4.37,45,45,0,0,1-1.75-19.69,4.51,4.51,0,1,1,8.88,1.54c-.19,1.18-4.6,28.7,26.5,37.23a4.52,4.52,0,0,1-1.19,8.87,5,5,0,0,1-1.2-.16c-12-3.3-19.69-9.09-24.58-15.26-5.12,5.93-15.28,15.88-26.27,16.56-10.63,28.31-20.07,66.07-7.13,89.82,7.5,13.75,19.06,16.3,19.5,16.39.15,0,15,2.72,25.45-6.74,8.44-7.67,11.82-21.28,10.05-40.46a4.52,4.52,0,0,1,5.59-4.79c.4.1,40.73,9.78,48.22-16.1a4.51,4.51,0,0,1,8.66,2.51c-7.07,24.44-35.08,26.43-53.08,23.56.77,19.09-3.71,33.18-13.37,42-8.76,8-19.57,9.46-26.44,9.46a38.11,38.11,0,0,1-6.78-.54c-.58-.12-13.09-2.7-22.59-16-4.59,19.92,6.69,28.44,7.21,28.82a4.53,4.53,0,0,1,1.08,6.32c-3.48,4.86-12,19.7-9.9,30a12.6,12.6,0,0,0,6.23,8.53c11.53,6.94,19.92,3,24.36-.61a4.55,4.55,0,0,1,1-.86,19.94,19.94,0,0,0,2.58-2.81,4.5,4.5,0,0,1,4.57-1.8c39.86,8.13,70.11,4.32,89.92-11.32,16.51-13,21.31-31.26,22.68-39.75-19.24-.52-27.13-9.53-27.49-9.94a4.54,4.54,0,0,1,.49-6.39,4.48,4.48,0,0,1,6.34.49c.28.31,7.19,7.68,25.48,6.76.14,0,.27,0,.42,0h.25c1.91.18,18.85,1.21,22-17.6A48.33,48.33,0,0,0,581.47,363.5Zm-68,86.54c-4.43,4.27-10.44,6.4-17.94,6.4a48.23,48.23,0,0,1-7.95-.71,19.36,19.36,0,0,1-13.24,5.55h-.1a4.51,4.51,0,0,1-.09-9c11.13-.24,14.17-17.34,14.21-17.57a4.51,4.51,0,0,1,8.9,1.47,44.64,44.64,0,0,1-3.72,11.21c6,.37,10.62-.91,13.65-3.81,6.64-6.36,4.66-19,4.63-19.2a4.51,4.51,0,0,1,8.89-1.51C520.88,423.57,523.59,440.33,513.51,450Z" transform="translate(-104.5 -210.85)"/><path class="cls-9" d="M325.81,452.26a4.51,4.51,0,0,1-.09,9h-.1a19.32,19.32,0,0,1-13.23-5.55,48.44,48.44,0,0,1-8,.71c-7.5,0-13.51-2.13-17.94-6.4-10.07-9.71-7.37-26.47-7.24-27.19a4.51,4.51,0,0,1,8.9,1.51c0,.17-2,12.84,4.62,19.2,3,2.9,7.62,4.18,13.65,3.81a43.92,43.92,0,0,1-3.71-11.21,4.51,4.51,0,1,1,8.89-1.47C311.65,434.92,314.69,452,325.81,452.26Z" transform="translate(-104.5 -210.85)"/><path class="cls-9" d="M474.19,452.26a4.51,4.51,0,0,0,.09,9h.1a19.34,19.34,0,0,0,13.24-5.55,48.25,48.25,0,0,0,8,.71c7.49,0,13.5-2.13,17.93-6.4,10.08-9.71,7.37-26.47,7.24-27.19a4.51,4.51,0,0,0-8.89,1.51c0,.17,2,12.84-4.63,19.2-3,2.9-7.61,4.18-13.65,3.81a44.64,44.64,0,0,0,3.72-11.21,4.51,4.51,0,0,0-8.9-1.47C488.36,434.92,485.32,452,474.19,452.26Z" transform="translate(-104.5 -210.85)"/><path class="cls-9" d="M595.12,395.87c4.24-25.43-8.94-41.87-9.5-42.56a4.3,4.3,0,0,0-.68-.67c.21-1,.4-2,.58-3,3.33-20.38-3.19-48.81-32.15-63.15-3.2-19.11-17-32.74-39.94-39.49a120.12,120.12,0,0,0-32.62-4.5c-1-1-2.08-2.06-3.17-3.16-5-5-10.52-10.62-18.2-15s-17.48-7.48-30.91-7.48c-9.88,0-18.82,6.47-25.16,18.22a57.72,57.72,0,0,0-3.37,7.48,59.08,59.08,0,0,0-3.36-7.48c-6.35-11.75-15.29-18.22-25.17-18.22-13.43,0-23.23,3.11-30.91,7.48s-13.24,10-18.19,15c-1.1,1.1-2.15,2.15-3.18,3.16a120,120,0,0,0-32.61,4.5c-23,6.75-36.74,20.38-39.95,39.49-29,14.34-35.48,42.77-32.14,63.15.17,1,.36,2,.58,3a4.36,4.36,0,0,0-.69.67c-.56.69-13.73,17.13-9.49,42.56a33.4,33.4,0,0,0,4,11.55,78.2,78.2,0,0,0-4.24,25.87c.37,19.54,9.65,34.13,26.89,42.39a57.12,57.12,0,0,0,4.64,22.95c9.86,22.79,31.91,31.65,48.66,35.06a102.06,102.06,0,0,0,20.39,2.17c27.63,0,42.58-13.11,48.33-19.69.23-.26.45-.52.67-.79C365.78,525.49,382,531.8,400,531.8s34.22-6.31,45.77-16.42c-.07-.09-.13-.18-.2-.26.29.36.58.71.88,1,5.74,6.58,20.69,19.69,48.32,19.69a102,102,0,0,0,20.39-2.17c16.76-3.41,38.81-12.27,48.67-35.06a57.07,57.07,0,0,0,4.63-22.95c17.25-8.26,26.52-22.85,26.89-42.39a77.67,77.67,0,0,0-4.24-25.87A33.6,33.6,0,0,0,595.12,395.87ZM400,476a21.8,21.8,0,0,0,9,9.94c6.22,3.74,11.87,5.14,16.83,5.14a26.32,26.32,0,0,0,9.71-1.87c0,.77,0,1.54.09,2.3.08,1.21.24,2.43.44,3.64.07.34.13.68.19,1,.17.77.35,1.55.55,2.33.11.39.22.77.34,1.16a42.08,42.08,0,0,0,2.21,5.74q.54,1.13,1.14,2.25l-.15-.27c0-.09-.1-.18-.14-.26-9.81,9.06-24.19,14.77-40.2,14.77s-30.38-5.71-40.19-14.77c-.09.17-.2.34-.29.53l.59-1.12c.19-.38.37-.76.55-1.13.35-.74.67-1.48,1-2.22.16-.41.32-.8.47-1.21s.27-.78.41-1.15l.36-1.16c.11-.39.23-.77.33-1.16.21-.78.39-1.56.55-2.33.06-.33.13-.67.19-1a34.74,34.74,0,0,0,.44-3.64c.07-.76.09-1.53.09-2.3a26.32,26.32,0,0,0,9.71,1.87c5,0,10.61-1.4,16.84-5.14A21.78,21.78,0,0,0,400,476ZM218.53,363.5c4.84,11,12.77,18.19,21.78,19.1l.45,0a4.51,4.51,0,0,0,.45-9c-8-.8-15.53-11.51-17.82-25.47-2.81-17.18,2.17-39,23.58-51.62,1,5.51,3.34,13.12,8.91,18.67,4.74,4.73,10.86,7.12,18.19,7.12h.11a4.51,4.51,0,0,0,0-9h-.08c-17.66,0-18.74-20.82-18.81-23.54,2-16.59,13.37-28.06,33.65-34.08a111.9,111.9,0,0,1,31.85-4.17,4.42,4.42,0,0,0,3.27-1.2c1.58-1.48,3.11-3,4.73-4.66,9.19-9.27,19.61-19.78,42.7-19.78,4.32,0,7.95,2.11,10.84,4.86a35.47,35.47,0,0,1,6.4,8.62c9.68,17.92,8.08,39.9.94,50.79-2.7,4.13-5.7,6.18-9.16,6.27h-.25c-8.32,0-18.21-10.35-22.47-15.74a41.51,41.51,0,0,0,1.69-4.37,45.16,45.16,0,0,0,1.75-19.69,4.51,4.51,0,0,0-8.89,1.54c.2,1.18,4.6,28.7-26.5,37.23a4.52,4.52,0,0,0,1.19,8.87,5,5,0,0,0,1.2-.16c12-3.3,19.69-9.09,24.59-15.26,5.11,5.93,15.27,15.88,26.26,16.56,10.64,28.31,20.08,66.07,7.13,89.82-7.5,13.75-19.06,16.3-19.5,16.39-.14,0-15,2.72-25.45-6.74-8.44-7.67-11.82-21.28-10.05-40.46a4.48,4.48,0,0,0-1.55-3.83,4.54,4.54,0,0,0-4-1c-.4.1-40.73,9.78-48.22-16.1a4.51,4.51,0,0,0-8.66,2.51c7.07,24.44,35.09,26.43,53.09,23.56-.78,19.09,3.7,33.18,13.36,42,8.77,8,19.58,9.46,26.44,9.46a38.29,38.29,0,0,0,6.79-.54c.57-.12,13.09-2.7,22.59-16,4.58,19.92-6.7,28.44-7.22,28.82a4.51,4.51,0,0,0-1.85,2.94,4.46,4.46,0,0,0,.78,3.38c3.47,4.86,12,19.7,9.89,30a12.54,12.54,0,0,1-6.23,8.53c-11.53,6.94-19.91,3-24.36-.61a4.74,4.74,0,0,0-1-.86,19.29,19.29,0,0,1-2.58-2.81,4.52,4.52,0,0,0-4.58-1.8c-39.86,8.13-70.11,4.32-89.91-11.32-16.51-13-21.31-31.26-22.68-39.75,19.23-.52,27.13-9.53,27.49-9.94a4.54,4.54,0,0,0-.5-6.39,4.47,4.47,0,0,0-6.33.49c-.29.31-7.19,7.68-25.49,6.76-.14,0-.27,0-.41,0h-.26c-1.91.18-18.85,1.21-22-17.6A48.33,48.33,0,0,1,218.53,363.5ZM346.76,510.23c-6,6.86-23.85,22-60.11,14.62-50.17-10.21-46.16-49.8-46-51.47a4.5,4.5,0,0,0-2.74-4.71c-29.18-12.17-25.52-40.45-22-53.42a31.94,31.94,0,0,0,16.19,5.67c1.22,9.2,6.17,31,26.14,46.87,21.53,17.09,53.45,21.68,94.85,13.67.43.46.94,1,1.51,1.49C357,491.33,354,501.92,346.76,510.23Zm215.31-41.56a4.49,4.49,0,0,0-2.75,4.71c.19,1.67,4.2,41.26-46,51.47-36.26,7.39-54.13-7.76-60.12-14.62C446,501.92,443,491.33,445.41,483c.57-.53,1.08-1,1.52-1.49,41.4,8,73.31,3.42,94.85-13.67,20-15.84,24.91-37.67,26.13-46.87a31.88,31.88,0,0,0,16.19-5.67C587.58,428.22,591.24,456.5,562.07,468.67Zm24.15-74.28c-3.13,18.81-20.07,17.78-22,17.6H564c-.15,0-.28,0-.42,0-18.29.92-25.2-6.45-25.48-6.76a4.48,4.48,0,0,0-6.34-.49,4.54,4.54,0,0,0-.49,6.39c.36.41,8.25,9.42,27.49,9.94-1.37,8.49-6.17,26.72-22.68,39.75-19.81,15.64-50.06,19.45-89.92,11.32a4.5,4.5,0,0,0-4.57,1.8,19.94,19.94,0,0,1-2.58,2.81,4.55,4.55,0,0,0-1,.86c-4.44,3.62-12.83,7.55-24.36.61a12.6,12.6,0,0,1-6.23-8.53c-2.13-10.33,6.42-25.17,9.9-30a4.53,4.53,0,0,0-1.08-6.32c-.52-.38-11.8-8.9-7.21-28.82,9.5,13.26,22,15.84,22.59,16a38.11,38.11,0,0,0,6.78.54c6.87,0,17.68-1.49,26.44-9.46,9.66-8.78,14.14-22.87,13.37-42,18,2.87,46,.88,53.08-23.56a4.51,4.51,0,0,0-8.66-2.51c-7.49,25.88-47.82,16.2-48.22,16.1a4.52,4.52,0,0,0-5.59,4.79c1.77,19.18-1.61,32.79-10.05,40.46-10.41,9.46-25.3,6.77-25.45,6.74-.44-.09-12-2.64-19.5-16.39-12.94-23.75-3.5-61.51,7.13-89.82,11-.68,21.15-10.63,26.27-16.56,4.89,6.17,12.57,12,24.58,15.26a5,5,0,0,0,1.2.16,4.52,4.52,0,0,0,1.19-8.87c-31.1-8.53-26.69-36.05-26.5-37.23a4.51,4.51,0,1,0-8.88-1.54,45,45,0,0,0,1.75,19.69,39.3,39.3,0,0,0,1.68,4.37c-4.25,5.39-14.15,15.74-22.47,15.74h-.24c-3.47-.09-6.46-2.14-9.17-6.27-7.14-10.89-8.73-32.87.95-50.79a35.21,35.21,0,0,1,6.4-8.62c2.88-2.75,6.51-4.86,10.83-4.86,23.1,0,33.52,10.51,42.7,19.78,1.63,1.64,3.15,3.18,4.73,4.66a4.44,4.44,0,0,0,3.27,1.2,111.84,111.84,0,0,1,31.85,4.17c20.29,6,31.61,17.49,33.66,34.08-.08,2.72-1.16,23.54-18.82,23.54h-.08a4.51,4.51,0,0,0,0,9h.1c7.34,0,13.46-2.39,18.19-7.12,5.57-5.55,7.91-13.16,8.92-18.67,21.4,12.57,26.39,34.44,23.57,51.62-2.28,14-9.78,24.67-17.82,25.47a4.51,4.51,0,0,0,.45,9l.45,0c9-.91,16.95-8.14,21.78-19.1A48.33,48.33,0,0,1,586.22,394.39Z" transform="translate(-104.5 -210.85)"/><path class="cls-7" d="M443.68,479.85c0,6.16-2.9,11.89-7.83,16.58a44.23,44.23,0,0,1-18,9.91,64.07,64.07,0,0,1-35.79,0,44.34,44.34,0,0,1-18-9.91c-4.92-4.7-7.82-10.42-7.82-16.58,0-11.69,10.39-6.34,25.36-2.58a66.3,66.3,0,0,0,36.63,0C433.28,473.51,443.68,468.16,443.68,479.85Z" transform="translate(-104.5 -210.85)"/><path class="cls-9" d="M417.89,504.14a64.07,64.07,0,0,1-35.79,0,18.08,18.08,0,0,1,35.79,0Z" transform="translate(-104.5 -210.85)"/><path class="cls-7" d="M372.8,432.28s.05.37.15,1.07c0,.35.1.78.16,1.28,0,.26.07.52.09.83s0,.67,0,1c0,.74,0,1.58-.07,2.48s-.23,1.79-.38,2.8-.46,2-.73,3.15-.78,2.22-1.21,3.41-1.12,2.35-1.8,3.54a33.6,33.6,0,0,1-2.43,3.52,32.25,32.25,0,0,1-6.73,6.42c-.68.45-1.36.92-2.06,1.36s-1.46.8-2.21,1.19l-1.13.58-1.18.49c-.79.3-1.59.64-2.41.9a33.19,33.19,0,0,1-5.08,1.18,20.72,20.72,0,0,1-2.6.31l-1.31.07-.66,0h-.95l-2.21-.13-.55,0a5.63,5.63,0,0,1-.61-.06l-1.41-.2a22,22,0,0,1-2.73-.51l-2.5-.69c-.83-.26-1.62-.6-2.42-.9l-1.18-.49-1.13-.58c-.74-.39-1.5-.74-2.2-1.19s-1.39-.91-2.06-1.36a31.77,31.77,0,0,1-6.73-6.42,30.81,30.81,0,0,1-2.43-3.52c-.68-1.19-1.27-2.39-1.8-3.54s-.92-2.3-1.21-3.41-.57-2.16-.74-3.15-.29-1.94-.38-2.8,0-1.67,0-2.38c0-.36,0-.69,0-1s.06-.61.08-.89c.06-.54.11-1,.15-1.39.1-.74.15-1.14.15-1.14a2.21,2.21,0,0,1,4.33-.28l.07.28.26,1c.18.62.31,1.55.72,2.68l.61,1.84c.3.64.57,1.34.88,2.08s.76,1.46,1.16,2.24,1,1.54,1.47,2.34,1.15,1.58,1.81,2.35a28.62,28.62,0,0,0,2.17,2.25,28.13,28.13,0,0,0,5.31,4,29.86,29.86,0,0,0,6.42,2.67l1.72.39a3.84,3.84,0,0,0,.83.15l.77.11.78.13a2.09,2.09,0,0,0,.48,0l.55,0,2.21.09c-.57,0-.14,0-.26,0H341l.45,0,.9,0a11.55,11.55,0,0,0,1.77-.19,17,17,0,0,0,1.76-.28l1.73-.39a29.86,29.86,0,0,0,6.42-2.67,27.74,27.74,0,0,0,5.3-4,27.06,27.06,0,0,0,2.18-2.25c.66-.77,1.23-1.58,1.81-2.35s1-1.56,1.47-2.34.84-1.51,1.16-2.24.58-1.44.88-2.08.41-1.22.6-1.75l.26-.76c.07-.27.13-.55.19-.79.11-.5.2-.92.28-1.26l.26-1.05a2.24,2.24,0,0,1,4.39.22Z" transform="translate(-104.5 -210.85)"/><path class="cls-7" d="M491.89,432.28s.06.37.15,1.07c0,.35.1.78.16,1.28,0,.26.08.52.09.83s0,.67,0,1c0,.74,0,1.58-.06,2.48s-.24,1.79-.38,2.8-.47,2-.74,3.15-.78,2.22-1.21,3.41-1.12,2.35-1.8,3.54a30.81,30.81,0,0,1-2.43,3.52,32,32,0,0,1-6.73,6.42c-.67.45-1.35.92-2.06,1.36s-1.46.8-2.2,1.19l-1.13.58-1.18.49c-.8.3-1.6.64-2.42.9a33.34,33.34,0,0,1-5.07,1.18,20.88,20.88,0,0,1-2.61.31l-1.31.07-.66,0h-.94l-2.21-.13-.55,0a5.56,5.56,0,0,1-.62-.06l-1.4-.2a21.71,21.71,0,0,1-2.73-.51l-2.51-.69c-.82-.26-1.62-.6-2.41-.9l-1.19-.49-1.12-.58c-.75-.39-1.51-.74-2.21-1.19s-1.38-.91-2.06-1.36a32.25,32.25,0,0,1-6.73-6.42,33.6,33.6,0,0,1-2.43-3.52c-.68-1.19-1.26-2.39-1.8-3.54s-.92-2.3-1.21-3.41-.57-2.16-.73-3.15-.3-1.94-.38-2.8,0-1.67-.06-2.38c0-.36,0-.69,0-1s.06-.61.09-.89c.05-.54.11-1,.15-1.39.09-.74.15-1.14.15-1.14a2.2,2.2,0,0,1,4.32-.28l.07.28.26,1c.18.62.31,1.55.72,2.68.19.55.39,1.17.61,1.84s.57,1.34.88,2.08.77,1.46,1.16,2.24,1,1.54,1.47,2.34,1.15,1.58,1.81,2.35a27.06,27.06,0,0,0,2.18,2.25,27.74,27.74,0,0,0,5.3,4,29.86,29.86,0,0,0,6.42,2.67l1.73.39a3.76,3.76,0,0,0,.82.15l.78.11.77.13a2.09,2.09,0,0,0,.48,0l.56,0,2.21.09c-.57,0-.14,0-.26,0h.41l.45,0,.9,0a11.81,11.81,0,0,0,1.78-.19A17.42,17.42,0,0,0,465,456l1.72-.39a29.86,29.86,0,0,0,6.42-2.67,28.13,28.13,0,0,0,5.31-4,28.62,28.62,0,0,0,2.17-2.25c.66-.77,1.23-1.58,1.81-2.35s1-1.56,1.47-2.34.85-1.51,1.16-2.24.58-1.44.88-2.08l.6-1.75.26-.76c.08-.27.13-.55.19-.79.11-.5.21-.92.29-1.26.16-.69.25-1.05.25-1.05a2.24,2.24,0,0,1,4.39.22Z" transform="translate(-104.5 -210.85)"/><path class="cls-7" d="M319.33,353.42a5,5,0,0,1-4.84-6c.09-.39,9.12-38.76,51.34-43.08a4.95,4.95,0,0,1,1,9.84c-35.21,3.61-42.62,35.08-42.69,35.39A4.94,4.94,0,0,1,319.33,353.42Z" transform="translate(-104.5 -210.85)"/><path class="cls-7" d="M480.68,353.42a5,5,0,0,1-4.83-3.86c-.3-1.31-7.7-31.82-42.68-35.41a4.95,4.95,0,1,1,1-9.84c42.22,4.32,51.24,42.69,51.33,43.08a5,5,0,0,1-3.75,5.91A5.1,5.1,0,0,1,480.68,353.42Z" transform="translate(-104.5 -210.85)"/><path class="cls-10" d="M661,472.88c-4.78,1.23-4.44,6.05-1.55,20.14a21.25,21.25,0,0,1-7.88,21.47c14.9-24.82-6.34-44.41-11.23-40.85-4.31,3.15-2.38,7.85,4.51,19.86s-1.77,20.29-1.77,20.29c1.61-10.49-.24-21.61-9.45-24.46-6.54-2-8.57,2.52-8.74,5.77-2.51-9.58-30.12-13.86-23,13.15,3.81,14.47,10.78,21.38,17,24.68a99.1,99.1,0,0,1-8.2,28.7c-9.54,20.29-24.9,31.81-45.69,34.3-40.37,4.83-64.06-23.46-72.54-36.16l11.45-6.6a5.51,5.51,0,0,0,1.19-8.61l-8.5-8.74a103.32,103.32,0,0,0,18.59-2.14c16.75-3.4,38.8-12.26,48.67-35a57.31,57.31,0,0,0,4.63-22.95c17.25-8.26,26.52-22.85,26.89-42.39a77.61,77.61,0,0,0-4.25-25.87,33.38,33.38,0,0,0,4-11.56c4.23-25.43-8.93-41.87-9.49-42.55a4.83,4.83,0,0,0-.69-.67c.21-1,.4-2,.58-3,3.33-20.37-3.19-48.8-32.15-63.15-3.2-19.11-17-32.73-39.94-39.49a120.06,120.06,0,0,0-32.61-4.5c-1-1-2.09-2.06-3.18-3.16-4.95-5-10.53-10.62-18.2-15s-17.48-7.48-30.91-7.48c-9.87,0-18.82,6.46-25.16,18.21a57.86,57.86,0,0,0-3.37,7.49V646.19h40l-34.43,4.19S400,684,405.54,684s10.71-23.38,10.71-23.38,116.16-9.23,107-20.94c-4.85-6.19-27.33-7.83-47.46-8l-9.22-57,10.6-6.11a111.75,111.75,0,0,0,18.58,21.77c17.33,15.64,37.94,23.73,60.12,23.73a92.29,92.29,0,0,0,11.19-.68c27-3.23,47.7-18.73,59.79-44.86a117.21,117.21,0,0,0,9.48-33.36C689.37,526.73,668.39,470.94,661,472.88Zm-41.3,47.22c-5-1.13-9.93-19.71-2.88-18.91s7.83-2.52,7.83-2.52a6.22,6.22,0,0,0,.41-1.56c1.65,6.27,5.37,2,8.42,9.69C638.46,519.42,624.66,521.22,619.69,520.1Z" transform="translate(-104.5 -210.85)"/><g class="cls-11"><path class="cls-2" d="M160,299.13c0,11-4.87,15.86-15.86,15.86,11,0,15.86,4.87,15.86,15.86,0-11,4.87-15.86,15.85-15.86C164.87,315,160,310.12,160,299.13Z" transform="translate(-104.5 -210.85)"/><path class="cls-2" d="M126.62,338.25c0,15.33-6.8,22.12-22.12,22.12,15.32,0,22.12,6.8,22.12,22.12,0-15.32,6.79-22.12,22.12-22.12C133.41,360.37,126.62,353.58,126.62,338.25Z" transform="translate(-104.5 -210.85)"/><path class="cls-2" d="M171.81,344.58a3.37,3.37,0,1,1-3.37-3.37A3.36,3.36,0,0,1,171.81,344.58Z" transform="translate(-104.5 -210.85)"/><path class="cls-2" d="M122,317a5.5,5.5,0,1,1-5.49-5.49A5.49,5.49,0,0,1,122,317Z" transform="translate(-104.5 -210.85)"/><path class="cls-2" d="M158.6,374.62a3.24,3.24,0,1,1-3.23-3.23A3.23,3.23,0,0,1,158.6,374.62Z" transform="translate(-104.5 -210.85)"/></g><g class="cls-11"><path class="cls-2" d="M651.52,353.42c0,11,4.87,15.85,15.86,15.85-11,0-15.86,4.88-15.86,15.86,0-11-4.87-15.86-15.85-15.86C646.65,369.27,651.52,364.4,651.52,353.42Z" transform="translate(-104.5 -210.85)"/><path class="cls-2" d="M684.9,392.54c0,15.32,6.8,22.12,22.13,22.12-15.33,0-22.13,6.79-22.13,22.12,0-15.33-6.79-22.12-22.12-22.12C678.11,414.66,684.9,407.86,684.9,392.54Z" transform="translate(-104.5 -210.85)"/><path class="cls-2" d="M639.71,398.86a3.37,3.37,0,1,0,3.37-3.36A3.37,3.37,0,0,0,639.71,398.86Z" transform="translate(-104.5 -210.85)"/><path class="cls-2" d="M689.56,371.3a5.5,5.5,0,1,0,5.49-5.5A5.49,5.49,0,0,0,689.56,371.3Z" transform="translate(-104.5 -210.85)"/><path class="cls-2" d="M652.92,428.91a3.24,3.24,0,1,0,3.23-3.24A3.23,3.23,0,0,0,652.92,428.91Z" transform="translate(-104.5 -210.85)"/></g></g></g></svg>